<?xml version="1.0" standalone="no"?>
<!DOCTYPE svg PUBLIC "-//W3C//DTD SVG 20010904//EN"
 "http://www.w3.org/TR/2001/REC-SVG-20010904/DTD/svg10.dtd">
<svg version="1.0" xmlns="http://www.w3.org/2000/svg"
 width="570.000000pt" height="355.000000pt" viewBox="0 0 570.000000 355.000000"
 preserveAspectRatio="xMidYMid meet">

<g transform="translate(0.000000,355.000000) scale(0.100000,-0.100000)"
fill="#000000" stroke="none">
<path d="M0 2054 l0 -1495 21 3 c35 5 47 33 25 57 -29 32 -11 80 39 108 52 29
79 29 103 -2 24 -31 95 -48 171 -40 75 7 126 -5 126 -30 0 -12 -9 -22 -25 -26
-17 -5 -8 -7 27 -6 48 1 52 3 47 23 -5 21 -3 22 108 26 62 2 116 0 119 -5 4
-5 53 -4 120 3 137 15 135 15 326 5 114 -6 153 -5 153 3 0 7 10 12 23 12 12 0
46 9 75 19 42 16 58 17 81 8 21 -8 36 -8 53 0 28 12 49 6 41 -13 -4 -10 3 -14
22 -14 22 0 26 4 22 20 -3 11 -1 18 3 15 5 -3 11 -1 15 5 3 5 21 11 38 11 l32
2 -35 7 -35 7 38 2 c25 1 48 -6 64 -19 32 -25 43 -25 43 -1 0 20 41 85 71 113
10 10 27 18 38 18 15 0 21 9 26 40 4 26 12 40 22 40 18 0 45 25 36 34 -8 7 22
9 142 10 64 1 101 6 126 18 42 20 70 48 48 48 -7 0 4 16 25 35 32 29 35 36 21
41 -14 6 -12 9 11 25 15 10 32 15 37 12 6 -3 7 -1 3 5 -3 6 -8 25 -10 42 -3
28 -1 31 23 28 21 -2 26 -8 26 -30 1 -15 4 -30 8 -34 12 -12 8 -26 -5 -18 -10
6 -10 5 -1 -8 8 -9 11 -36 9 -72 l-4 -57 26 17 27 17 -18 -21 c-11 -11 -16
-25 -13 -31 4 -6 -4 -30 -17 -53 -13 -24 -22 -50 -20 -58 4 -11 2 -12 -5 -2
-5 7 -16 10 -25 7 -9 -3 -25 -7 -34 -11 -14 -4 -15 -7 -4 -14 9 -5 11 -14 6
-26 -5 -11 -7 -24 -6 -31 1 -6 -8 -18 -19 -26 -21 -14 -21 -15 -1 -20 13 -3
21 1 23 12 3 13 7 11 17 -8 7 -13 9 -21 3 -17 -5 3 -12 -4 -15 -15 -3 -12 -10
-18 -17 -14 -6 3 -9 1 -8 -6 2 -6 -2 -13 -9 -16 -8 -3 -11 3 -8 17 4 20 3 20
-26 3 -30 -18 -30 -18 -7 -24 21 -6 21 -7 5 -14 -11 -4 -16 -14 -13 -22 4 -8
3 -20 -1 -26 -10 -17 -10 -57 0 -57 5 0 4 -7 -3 -15 -15 -18 1 -20 18 -3 7 7
12 8 12 4 0 -5 7 -3 15 4 8 7 12 17 8 23 -3 6 -1 7 5 3 6 -4 17 2 24 14 16 25
61 28 51 3 -4 -11 -3 -14 5 -9 14 8 14 0 3 -29 -5 -13 -2 -29 8 -45 9 -13 11
-21 5 -17 -7 4 -14 -1 -17 -13 -3 -11 -11 -20 -17 -20 -10 0 -10 3 0 15 14 17
7 19 -20 5 -16 -9 -18 -8 -13 6 5 13 3 15 -7 9 -9 -5 -11 -4 -6 4 4 6 12 8 18
5 6 -4 8 1 4 14 -5 14 0 27 14 40 17 16 18 21 7 31 -11 9 -17 7 -28 -6 -13
-16 -12 -17 3 -4 11 8 18 9 18 3 0 -6 -21 -21 -46 -34 -26 -12 -49 -28 -51
-35 -3 -7 -8 -11 -12 -9 -3 2 -7 -14 -8 -35 -1 -36 1 -38 15 -27 15 12 16 11
2 -6 -13 -17 -18 -31 -22 -67 -1 -9 -8 -15 -15 -12 -7 3 -13 -1 -13 -9 0 -22
12 -29 27 -16 11 9 13 4 9 -26 -2 -20 -1 -34 4 -31 14 9 20 -10 21 -64 1 -28
5 -48 9 -46 5 3 6 -25 4 -63 -2 -37 -1 -62 2 -55 6 14 32 -10 53 -50 l15 -27
637 0 638 1 -11 25 c-8 16 -14 21 -19 13 -4 -7 -6 6 -6 28 2 48 14 47 23 -2 3
-20 11 -38 17 -42 7 -4 8 5 4 26 -4 20 -3 30 3 26 6 -3 7 1 3 10 -4 12 -8 13
-13 5 -11 -18 -22 18 -11 39 6 10 6 23 0 32 -5 7 -9 32 -8 54 l0 40 14 -30 14
-30 -6 30 c-3 17 -10 34 -14 40 -15 15 -10 47 9 62 16 14 16 14 -1 9 -13 -4
-16 -2 -10 7 4 6 8 18 10 26 1 8 5 17 10 20 4 3 9 15 10 26 1 19 0 19 -17 -2
l-18 -23 -26 45 c-15 24 -36 50 -47 56 -14 7 -19 18 -17 36 2 18 -4 30 -19 40
-21 14 -23 14 -23 -4 0 -11 -7 -20 -15 -20 -8 0 -15 9 -15 19 0 10 -4 18 -10
18 -15 0 -12 -33 5 -58 12 -16 13 -27 6 -41 -6 -10 -8 -21 -5 -24 3 -3 -2 -16
-11 -29 -15 -20 -16 -21 -12 -3 16 59 18 85 8 85 -6 0 -11 12 -11 26 0 23 -3
26 -27 21 -26 -5 -27 -4 -8 9 11 8 28 21 37 29 15 12 19 12 32 0 14 -14 17
-11 24 28 1 4 8 20 17 37 18 36 19 40 2 40 -22 0 -56 46 -50 68 5 21 -18 32
-69 32 -37 0 -36 -19 2 -26 16 -4 27 -10 25 -15 -3 -4 -13 -5 -22 -2 -11 4
-14 3 -9 -5 4 -7 2 -12 -4 -12 -7 0 -10 7 -6 15 3 8 1 15 -3 15 -5 0 -11 -5
-13 -11 -2 -5 -11 -11 -20 -13 -10 -1 -21 -5 -24 -9 -13 -12 -24 -7 -18 8 4 8
1 15 -6 15 -6 0 -8 5 -5 10 12 20 -22 9 -43 -13 -29 -31 -30 -52 -1 -37 11 7
23 9 27 6 9 -9 -2 -16 -31 -18 -18 -2 -30 -11 -38 -30 -15 -37 -36 -54 -34
-28 1 11 7 26 13 32 7 7 12 19 12 27 0 11 -4 10 -15 -5 -8 -10 -15 -14 -15 -8
0 5 7 19 15 30 8 10 15 27 15 36 0 10 9 22 20 28 11 6 18 15 16 19 -3 4 1 8 9
8 8 0 13 -5 12 -10 -4 -20 22 -17 44 5 12 13 19 18 15 11 -4 -8 1 -11 14 -10
40 3 12 22 -33 22 -35 0 -43 3 -35 13 6 6 19 12 29 12 10 0 21 5 24 10 10 17
-38 11 -70 -8 -43 -27 -84 -33 -80 -13 2 9 4 18 4 21 1 3 5 -1 9 -8 7 -10 14
-8 34 7 14 11 28 18 31 15 3 -3 4 3 3 13 -1 14 8 19 39 24 l40 6 -35 3 c-26 2
-29 4 -12 7 13 3 19 9 16 15 -5 7 -2 8 6 3 7 -4 16 -2 20 5 4 7 22 13 39 14
17 1 37 8 46 17 14 13 12 15 -14 14 -16 0 -27 -3 -24 -7 8 -15 -15 -8 -27 7
-14 17 -15 17 20 32 18 9 20 12 8 12 -10 1 -18 6 -18 11 0 6 -5 10 -11 10 -5
0 -7 -5 -4 -10 3 -5 -1 -10 -9 -10 -8 0 -18 5 -21 10 -4 6 -3 10 2 9 4 -1 15
0 23 4 8 3 28 8 43 11 15 4 25 11 22 16 -4 6 0 13 9 16 16 6 11 34 -6 34 -6 0
-8 -6 -5 -12 3 -8 -5 -14 -21 -15 -13 0 -27 -5 -31 -10 -3 -5 -15 -10 -26 -10
-42 -2 -89 -13 -94 -21 -3 -5 -21 -13 -40 -17 -37 -8 -73 -34 -65 -47 5 -8 -9
-12 -32 -9 -6 1 -17 -6 -24 -14 -10 -12 -10 -15 1 -15 8 0 6 -6 -7 -16 -17
-14 -16 -14 9 0 16 10 27 12 27 6 0 -6 4 -8 10 -5 6 3 10 2 10 -4 0 -6 -18
-15 -41 -21 -22 -6 -47 -14 -56 -17 -11 -4 -14 -2 -9 5 5 8 -2 12 -20 12 l-26
0 23 21 c21 18 22 20 4 14 -11 -4 -34 -8 -52 -9 -25 -1 -32 3 -36 20 -3 17 2
23 22 27 33 7 37 2 20 -20 -13 -16 -12 -17 4 -4 9 8 20 11 24 8 8 -9 64 33 58
43 -3 4 -13 7 -23 5 -9 -2 -20 -4 -24 -4 -5 -1 -8 -6 -8 -12 0 -8 6 -7 17 2
15 13 15 12 3 -7 -12 -20 -15 -20 -29 -6 -9 8 -16 20 -17 26 0 6 -2 19 -2 30
-2 14 -8 17 -27 14 -13 -3 -22 -1 -19 3 3 5 0 9 -5 9 -6 0 -11 7 -11 16 0 9
-5 12 -12 8 -9 -5 -8 -2 1 10 25 30 -1 40 -50 17 -68 -30 -129 -14 -148 39 -6
17 -15 29 -21 25 -15 -10 -35 8 -36 32 -2 31 5 29 36 -9 l27 -32 1 32 c0 17
-4 35 -10 38 -7 4 -8 2 -4 -4 4 -7 2 -12 -4 -12 -8 0 -9 7 -5 18 4 9 10 25 12
35 5 17 7 17 30 1 14 -9 23 -11 19 -6 -8 13 23 31 41 25 6 -2 14 1 18 6 3 7
-3 11 -14 11 -12 0 -21 7 -21 15 0 8 6 15 13 15 9 0 9 2 -1 9 -7 4 -12 14 -10
21 4 18 -49 44 -89 44 -17 0 -30 4 -27 8 3 4 -2 5 -10 2 -24 -9 -19 11 7 30
12 9 17 14 11 12 -16 -8 -27 26 -12 35 9 6 8 10 -6 15 -14 5 -15 9 -4 15 11 7
11 9 -1 9 -10 0 -11 3 -2 13 15 18 3 29 -19 17 -10 -5 -20 -7 -23 -3 -4 3 -13
1 -20 -5 -18 -15 -24 -114 -12 -182 5 -26 4 -31 -4 -20 -6 8 -11 11 -11 6 0
-5 7 -18 17 -28 10 -11 12 -18 4 -18 -8 0 -6 -8 4 -24 11 -16 13 -26 5 -31 -6
-3 -7 -12 -3 -18 5 -7 9 -23 9 -37 2 -46 4 -51 16 -44 7 4 8 3 4 -4 -4 -7 -18
-12 -31 -12 -19 0 -23 -4 -18 -17 4 -10 2 -14 -4 -10 -6 4 -14 1 -17 -5 -3 -7
-3 -1 0 14 4 17 2 28 -5 28 -6 0 -11 10 -10 23 l0 22 10 -23 c11 -28 34 -24
35 6 1 12 -3 19 -8 16 -4 -3 -6 -9 -3 -14 3 -5 1 -11 -5 -15 -7 -4 -9 14 -8
53 3 52 1 58 -14 54 -12 -3 -18 1 -18 11 0 16 -24 17 -37 2 -4 -4 -3 -5 4 -1
6 3 14 2 18 -4 3 -6 -4 -10 -16 -10 -22 0 -22 0 -3 -14 10 -8 16 -18 11 -22
-4 -4 -7 -2 -7 4 0 7 -7 12 -15 12 -8 0 -15 -4 -15 -10 0 -5 5 -10 11 -10 5 0
7 -5 4 -10 -10 -17 -36 -11 -33 7 2 10 -7 22 -22 30 -14 7 -20 13 -13 13 6 0
10 11 9 24 -2 19 1 23 13 18 13 -4 14 -3 5 9 -15 20 -16 61 -1 52 7 -4 6 0 -2
10 -15 18 -26 23 -16 7 3 -6 1 -10 -4 -10 -16 0 -13 15 3 30 8 6 12 18 9 26
-3 10 0 12 10 8 22 -8 31 14 13 32 -19 19 -20 27 -4 22 7 -3 18 1 25 8 7 7 18
15 25 17 10 4 9 8 -2 16 -11 8 -12 11 -2 11 7 0 10 4 7 10 -3 5 0 7 8 4 11 -4
13 1 10 20 -3 14 -9 23 -14 20 -5 -3 -9 2 -9 10 0 9 5 16 10 16 6 0 19 9 30
20 19 19 19 20 -3 31 -12 7 -27 19 -34 28 -8 11 -12 12 -13 4 0 -7 -4 -13 -10
-13 -6 0 -5 9 1 24 8 17 8 29 0 45 -10 18 -9 20 6 14 16 -6 16 -5 5 10 -8 9
-20 13 -29 10 -12 -5 -14 -3 -8 8 8 12 6 12 -8 0 -10 -8 -20 -11 -24 -8 -3 4
-14 2 -25 -4 -18 -9 -18 -8 -8 10 6 12 16 21 21 21 6 0 9 6 6 14 -3 7 0 19 6
25 8 8 5 9 -11 6 -24 -4 -25 13 -2 32 20 16 33 16 24 1 -4 -7 2 -4 15 6 16 15
18 21 9 28 -8 4 5 8 31 8 45 0 51 11 9 15 -13 1 -30 3 -38 4 -10 1 -7 7 10 17
l25 15 -35 -5 c-19 -2 -42 -6 -50 -8 -8 -2 0 3 18 11 l34 14 -29 13 -28 13 30
-6 c29 -5 29 -5 10 10 -20 16 -20 16 3 17 12 0 22 5 22 10 0 6 11 10 24 10 14
0 28 4 31 10 3 5 0 7 -8 4 -9 -3 -16 3 -20 15 -2 10 -15 21 -28 24 -13 2 -3 5
23 6 64 1 68 17 11 35 -27 8 -34 13 -18 11 17 -3 37 -1 45 5 13 8 13 10 -2 10
-9 0 -18 5 -20 10 -2 6 -37 22 -78 36 -41 15 -99 43 -129 63 -30 20 -68 44
-85 54 -17 10 -23 16 -13 13 9 -3 17 0 17 7 0 9 2 9 8 0 4 -6 20 -15 36 -19
23 -5 27 -4 21 7 -7 11 -5 11 11 -1 10 -8 16 -10 12 -6 -4 5 -3 15 3 23 10 11
14 10 25 -4 10 -15 10 -19 -4 -24 -12 -4 1 -12 38 -23 50 -15 95 -35 79 -36
-4 0 -35 9 -70 19 -35 10 -77 22 -94 25 -30 7 -29 7 8 -19 56 -39 114 -62 175
-70 60 -8 67 3 20 29 -18 9 -25 14 -15 11 61 -17 65 -17 72 7 4 12 12 26 17
29 5 4 -23 33 -64 66 -40 34 -96 87 -123 119 -39 46 -25 35 65 -49 103 -97
140 -121 132 -88 -1 6 4 11 11 11 18 0 47 90 47 144 0 22 7 50 15 60 15 20 14
69 -5 221 -6 44 -10 89 -9 100 1 11 2 77 2 148 0 70 4 127 7 127 4 0 12 10 18
23 8 16 11 18 11 5 1 -9 31 -39 69 -66 37 -27 90 -71 117 -96 28 -25 55 -46
62 -46 14 0 -13 71 -49 127 -11 18 -17 33 -14 33 3 0 20 -25 37 -56 18 -31 37
-58 44 -60 6 -3 18 -21 25 -40 13 -32 15 -34 27 -18 12 17 13 17 13 0 0 -13 5
-16 20 -11 14 4 20 2 20 -9 0 -8 7 -22 16 -31 13 -12 19 -13 30 -4 8 7 17 9
21 6 3 -4 14 -2 24 4 13 6 19 6 19 -1 0 -5 5 -10 10 -10 6 0 10 7 10 16 0 26
17 6 24 -27 l6 -32 23 24 c29 32 64 59 53 41 -9 -14 12 -45 25 -37 4 3 5 13 2
23 -3 9 4 4 17 -12 19 -24 24 -26 32 -12 5 8 15 13 22 10 21 -8 29 29 16 77
-6 22 -9 43 -7 46 8 7 29 -95 23 -106 -9 -13 32 -5 51 10 11 10 14 10 11 -2
-2 -9 8 -15 29 -17 29 -3 33 0 42 35 6 21 19 79 28 128 9 50 19 83 21 74 1 -9
-6 -61 -18 -117 -25 -122 -25 -131 -2 -127 9 1 23 -3 31 -9 12 -9 13 -8 8 7
-4 11 -3 16 3 12 6 -3 10 -14 11 -23 0 -10 3 -12 5 -5 3 7 11 10 19 7 7 -3 19
4 25 16 6 11 15 18 21 15 5 -4 10 6 10 22 1 18 3 22 6 10 3 -11 11 -16 19 -13
7 3 16 1 20 -5 3 -6 10 -6 17 -1 7 5 37 17 67 27 30 9 65 24 77 31 19 12 21
17 11 34 -10 15 -9 24 2 46 12 21 12 28 2 31 -6 3 -12 16 -12 30 0 21 4 24 23
19 12 -3 25 -6 30 -6 4 0 7 -6 7 -14 0 -7 7 -27 15 -42 20 -38 19 -62 -2 -67
-13 -3 -9 -6 12 -11 52 -13 62 -18 44 -23 -11 -3 -15 -11 -12 -23 5 -17 6 -17
22 -1 10 10 20 25 24 34 4 10 15 20 24 24 10 4 24 15 31 25 7 10 17 16 22 13
4 -3 10 -2 12 2 9 21 70 41 120 40 59 -2 75 -14 156 -113 60 -74 70 -105 77
-230 2 -39 11 -94 20 -122 10 -29 15 -67 13 -84 -3 -18 -1 -45 4 -60 6 -17 6
-33 -1 -46 -7 -13 -7 -22 0 -29 9 -9 15 -53 19 -145 1 -10 5 -18 11 -18 5 0 9
-6 9 -14 0 -7 6 -19 14 -25 7 -6 12 -21 10 -34 -8 -53 -45 -160 -58 -171 -9
-6 -22 -28 -31 -49 -9 -21 -22 -40 -30 -43 -17 -7 -30 -41 -26 -68 2 -12 -1
-16 -10 -11 -9 6 -11 2 -7 -13 4 -15 0 -22 -15 -26 -17 -4 -18 -7 -7 -20 11
-15 7 -20 -12 -17 -5 0 -8 -4 -8 -10 0 -5 -6 -7 -12 -3 -10 5 -10 4 0 -7 10
-11 8 -16 -10 -26 -19 -10 -20 -12 -5 -13 10 0 16 -4 13 -9 -4 -5 0 -12 6 -14
9 -4 9 -6 -1 -6 -9 -1 -1 -11 18 -25 21 -16 28 -26 19 -29 -7 -3 7 -6 32 -8
25 -1 35 -4 23 -6 -39 -8 -25 -23 21 -23 24 0 48 -6 55 -13 6 -8 32 -15 58
-15 27 -1 53 -8 58 -15 30 -36 55 -39 165 -21 110 17 180 15 330 -9 110 -18
207 -27 333 -30 l177 -4 0 994 0 993 -2850 0 -2850 0 0 -1496z m1350 1461
c362 -44 641 -191 750 -395 31 -59 34 -73 35 -150 0 -75 -4 -93 -32 -152 -51
-109 -157 -206 -300 -277 -68 -34 -65 -29 -84 -173 -7 -54 -15 -102 -19 -108
-5 -8 -63 15 -171 66 l-164 77 -175 -2 c-314 -4 -553 50 -765 173 -91 53 -203
165 -240 240 -78 160 -22 339 150 475 235 187 625 274 1015 226z m1959 -202
c17 -35 29 -63 26 -63 -5 0 -65 116 -65 126 0 12 6 2 39 -63z m-498 -20 c13
-16 12 -17 -3 -4 -10 7 -18 15 -18 17 0 8 8 3 21 -13z m34 -43 c10 -11 16 -20
13 -20 -3 0 -13 9 -23 20 -10 11 -16 20 -13 20 3 0 13 -9 23 -20z m242 -202
c-3 -8 -6 -5 -6 6 -1 11 2 17 5 13 3 -3 4 -12 1 -19z m-704 -609 c10 1 10 -13
0 -16 -17 -6 -34 14 -27 32 7 17 8 17 14 1 3 -10 9 -17 13 -17z m-250 -166
c-7 -2 -19 -2 -25 0 -7 3 -2 5 12 5 14 0 19 -2 13 -5z m287 -376 c0 -2 -26
-25 -57 -51 l-58 -49 50 51 c43 44 65 61 65 49z m-9 -80 l-24 -22 19 27 c10
14 21 24 23 22 3 -3 -6 -15 -18 -27z m54 -17 c-3 -5 -12 -10 -18 -10 -7 0 -6
4 3 10 19 12 23 12 15 0z m177 -272 c-15 -15 -16 -48 0 -48 6 0 4 -8 -6 -19
-10 -11 -15 -25 -11 -30 3 -6 2 -11 -3 -11 -21 0 -30 69 -10 81 5 3 9 9 9 13
-2 9 23 35 28 30 3 -2 -1 -10 -7 -16z m-187 -238 c3 -5 2 -10 -4 -10 -5 0 -13
5 -16 10 -3 6 -2 10 4 10 5 0 13 -4 16 -10z m248 -120 c-4 -14 1 -22 18 -28
13 -5 18 -11 11 -16 -6 -3 -13 -2 -17 4 -3 5 -14 10 -23 10 -16 -1 -16 -1 1
-11 22 -13 22 -60 -1 -85 -10 -10 -16 -27 -14 -36 2 -10 -1 -18 -7 -18 -6 0
-11 14 -11 30 0 22 -6 33 -23 41 -19 8 -23 17 -19 36 3 17 -1 30 -10 37 -13 9
-13 13 -2 24 11 10 15 8 20 -13 3 -14 11 -22 16 -19 6 4 6 10 -1 17 -14 14
-14 37 -1 37 5 0 7 -7 4 -15 -5 -11 1 -15 19 -15 16 0 26 7 30 20 3 11 7 20
10 20 3 0 3 -9 0 -20z m-116 -93 c13 5 15 2 10 -11 -4 -10 -7 -23 -7 -29 -1
-7 -7 -1 -15 13 -8 14 -14 32 -13 40 0 11 1 11 5 -2 3 -11 10 -15 20 -11z m50
-59 c-3 -7 -5 -2 -5 12 0 14 2 19 5 13 2 -7 2 -19 0 -25z m-75 -10 c-7 -7 -12
-8 -12 -2 0 14 12 26 19 19 2 -3 -1 -11 -7 -17z m811 -4 c-3 -8 -12 -13 -20
-10 -8 3 -18 6 -21 7 -8 0 29 17 40 18 4 1 5 -6 1 -15z m-32 -37 c-13 -13 -82
-17 -74 -4 2 4 14 7 26 7 12 0 29 4 37 10 19 12 27 3 11 -13z m-745 -23 c-5
-14 -9 -15 -19 -5 -9 9 -9 14 3 21 18 11 24 6 16 -16z m624 6 c-8 -5 -22 -10
-30 -10 -13 0 -13 1 0 10 8 5 22 10 30 10 13 0 13 -1 0 -10z m90 -9 c0 -15
-15 -21 -60 -23 -38 -1 -59 -17 -66 -50 -1 -5 -3 -10 -4 -13 -1 -3 -3 -9 -4
-14 0 -5 -5 -13 -10 -18 -5 -5 -6 -3 -2 5 4 6 3 12 -3 12 -5 0 -1 17 9 37 10
21 16 42 13 47 -4 5 -1 6 5 2 6 -3 13 -2 16 3 3 5 22 8 42 7 20 -1 38 2 40 6
7 11 24 10 24 -1z m-334 -66 c1 -8 -4 -15 -12 -15 -14 0 -19 21 -7 33 8 9 16
1 19 -18z m154 0 c-7 -8 -22 -14 -34 -14 -20 1 -20 2 -1 6 11 3 24 9 30 14 15
14 19 10 5 -6z m-507 -26 c7 -27 -6 -24 -19 5 -9 19 -9 23 1 19 7 -2 15 -13
18 -24z m59 -42 c-5 -20 -6 -19 -15 8 -5 17 -15 37 -21 45 -6 8 1 5 16 -8 18
-17 24 -30 20 -45z m368 33 c-11 -11 -26 -20 -32 -20 -7 1 -2 10 11 20 30 26
47 26 21 0z m-500 -26 c0 -8 -4 -12 -10 -9 -5 3 -10 2 -10 -3 0 -6 7 -13 16
-16 10 -4 14 -14 11 -26 -3 -11 -2 -18 2 -15 7 4 7 -15 2 -84 -1 -8 -4 -11 -8
-8 -3 4 -11 0 -17 -8 -9 -12 -11 -5 -13 31 -1 26 2 55 7 65 12 21 2 52 -13 42
-10 -6 -3 10 16 35 13 16 17 15 17 -4z m631 2 c8 4 9 3 5 -4 -4 -7 -14 -12
-22 -12 -8 0 -14 -2 -14 -4 0 -2 -3 -13 -6 -23 -5 -15 -4 -15 5 -3 5 8 13 11
17 7 10 -9 1 -17 -25 -22 -14 -3 -19 0 -15 7 5 7 1 9 -9 5 -10 -3 -17 -2 -17
3 0 6 4 10 8 10 5 0 14 12 21 26 9 21 14 24 26 14 8 -6 20 -8 26 -4z m70 -9
c-10 -9 -11 -8 -5 6 3 10 9 15 12 12 3 -3 0 -11 -7 -18z m-644 -9 c-3 -8 -6
-5 -6 6 -1 11 2 17 5 13 3 -3 4 -12 1 -19z m468 12 c-3 -5 -11 -10 -16 -10 -6
0 -7 5 -4 10 3 6 11 10 16 10 6 0 7 -4 4 -10z m-81 -16 c-7 -3 -10 -14 -7 -25
4 -14 11 -18 22 -14 9 4 27 9 40 11 14 3 28 7 33 10 4 3 8 1 8 -5 0 -9 -38
-27 -52 -23 -13 3 -20 -39 -9 -52 6 -7 8 -16 4 -19 -3 -4 2 -9 11 -13 9 -3 16
-12 16 -19 0 -9 8 -12 21 -10 20 4 21 3 4 -15 -9 -10 -15 -27 -13 -37 2 -13
11 -5 31 30 15 26 32 47 37 47 16 0 12 -11 -20 -47 -30 -34 -38 -53 -21 -53
19 0 20 -33 1 -57 -11 -14 -20 -34 -20 -44 0 -10 -5 -21 -10 -24 -6 -3 -7 -17
-4 -29 4 -16 0 -25 -11 -30 -15 -5 -16 2 -11 59 3 38 1 63 -4 60 -5 -3 -12 0
-16 6 -4 8 -9 7 -15 -2 -6 -9 -9 -1 -9 24 0 27 -4 37 -16 37 -11 0 -14 5 -10
16 4 9 1 23 -5 30 -8 10 -5 21 15 46 17 23 22 38 16 48 -7 11 -11 11 -24 1
-10 -8 -16 -9 -16 -3 0 6 5 14 10 17 6 4 9 22 7 40 -4 36 -1 46 17 44 7 0 7
-2 0 -5z m-395 -69 c5 2 6 -8 4 -23 -4 -21 -2 -24 6 -12 9 13 11 13 11 -1 0
-9 -3 -19 -7 -23 -5 -4 -8 -16 -8 -27 0 -20 -19 -26 -21 -6 -1 6 -3 14 -4 17
-6 16 -4 58 3 53 4 -2 6 6 4 19 -2 12 -2 17 0 10 3 -7 8 -10 12 -7z m874 0
c-3 -9 -8 -14 -10 -11 -3 3 -2 9 2 15 9 16 15 13 8 -4z m-1032 -18 c-10 -9
-11 -8 -5 6 3 10 9 15 12 12 3 -3 0 -11 -7 -18z m882 -32 c-3 -9 -8 -14 -10
-11 -3 3 -2 9 2 15 9 16 15 13 8 -4z m229 -60 c-3 -5 -7 -4 -10 3 -2 7 -9 9
-15 5 -7 -4 -8 0 -4 11 4 10 7 23 7 29 0 7 6 1 14 -13 7 -14 10 -29 8 -35z
m-342 30 c0 -8 -4 -15 -10 -15 -5 0 -7 7 -4 15 4 8 8 15 10 15 2 0 4 -7 4 -15z
m-810 2 c0 -2 -10 -12 -22 -23 l-23 -19 19 23 c18 21 26 27 26 19z m370 -39
c0 -5 -6 -8 -14 -8 -8 0 -16 -10 -18 -22 -4 -28 -28 -36 -28 -9 0 12 5 21 10
21 6 0 10 7 10 16 0 8 -4 13 -9 9 -5 -3 -12 -1 -15 4 -8 13 47 19 56 6 4 -5 8
-13 8 -17z m499 -2 c-13 -29 -32 -36 -22 -8 8 19 26 42 31 37 1 -1 -3 -14 -9
-29z m-439 9 c0 -12 -53 -75 -63 -75 -2 0 0 20 6 45 9 38 14 45 34 45 13 0 23
-6 23 -15z m-151 -33 c-3 -44 -23 -53 -25 -11 -1 16 3 26 7 23 5 -3 9 2 9 10
0 9 2 16 5 16 3 0 5 -17 4 -38z m546 17 c-1 -20 -23 -41 -35 -34 -4 2 -13 -5
-21 -16 -49 -70 -59 -82 -59 -67 0 9 7 19 15 22 13 5 14 10 4 28 -6 13 -8 20
-4 16 4 -4 15 1 24 11 9 10 24 20 34 22 10 2 17 8 17 13 -1 6 16 24 26 26 0 0
0 -9 -1 -21z m-601 -4 c-4 -8 -10 -12 -15 -9 -11 6 -2 24 11 24 5 0 7 -7 4
-15z m727 -18 c-10 -9 -11 -8 -5 6 3 10 9 15 12 12 3 -3 0 -11 -7 -18z m-654
-19 c-3 -7 -5 -2 -5 12 0 14 2 19 5 13 2 -7 2 -19 0 -25z m-106 -1 c-10 -9
-11 -8 -5 6 3 10 9 15 12 12 3 -3 0 -11 -7 -18z m668 -4 c-1 -15 -27 -78 -28
-69 -1 5 -10 1 -21 -9 -11 -10 -20 -13 -20 -8 0 6 11 18 25 27 14 9 25 22 24
29 -3 23 1 37 11 37 6 0 10 -3 9 -7z m-873 -71 c-17 -16 -18 -16 -5 5 7 12 15
20 18 17 3 -2 -3 -12 -13 -22z m1209 -12 c4 -16 11 -30 16 -30 12 0 12 -37 -1
-45 -5 -3 -14 13 -20 36 -9 34 -15 40 -32 36 -19 -5 -19 -5 -2 14 24 26 31 24
39 -11z m-1122 0 c-3 -12 -8 -19 -11 -16 -5 6 5 36 12 36 2 0 2 -9 -1 -20z
m996 -26 c9 6 4 -125 -5 -133 -4 -3 -4 11 -1 31 3 21 1 40 -4 43 -5 4 -9 -1
-9 -9 0 -8 -6 -19 -13 -23 -7 -4 -23 -25 -37 -45 -13 -20 -27 -35 -31 -32 -4
2 -9 -4 -11 -14 -3 -10 -13 -19 -23 -19 -15 0 -17 7 -11 56 4 30 15 69 26 86
24 37 26 25 4 -21 -18 -37 -12 -76 8 -56 10 10 14 28 17 70 1 7 6 10 12 6 6
-3 8 -18 5 -33 l-7 -26 21 25 c27 33 40 64 41 103 1 24 3 26 6 9 2 -12 8 -20
12 -18z m-925 11 c-4 -8 -2 -15 3 -15 5 0 16 -6 24 -12 8 -7 12 -12 10 -11 -2
1 -12 -2 -21 -7 -14 -7 -17 -6 -16 8 0 9 -5 16 -11 15 -16 -4 -17 9 -1 25 16
16 19 15 12 -3z m101 -62 c20 8 29 -11 15 -28 -16 -19 -30 -19 -30 1 0 8 -4
12 -10 9 -5 -3 -10 -4 -10 -1 0 2 -3 13 -7 23 -6 16 -5 16 10 4 9 -7 23 -11
32 -8z m115 -12 c0 -6 -4 -13 -10 -16 -5 -3 -10 1 -10 9 0 9 5 16 10 16 6 0
10 -4 10 -9z m773 -41 c-3 -12 -8 -19 -11 -16 -5 6 5 36 12 36 2 0 2 -9 -1
-20z m-36 -59 c-1 -32 -5 -54 -9 -48 -3 6 -10 -6 -14 -27 -4 -25 -9 -34 -15
-25 -4 7 -3 21 2 30 6 11 4 29 -6 53 -18 42 -19 49 -5 41 5 -3 14 -20 18 -38
9 -31 9 -31 16 21 4 28 9 52 11 52 2 0 3 -27 2 -59z m140 27 c-3 -8 -6 -5 -6
6 -1 11 2 17 5 13 3 -3 4 -12 1 -19z m-485 -13 c-2 -15 0 -25 7 -25 6 0 11 -4
11 -9 0 -5 -8 -8 -17 -6 -17 2 -19 19 -8 53 8 21 12 13 7 -13z m125 -47 c-3
-8 -6 -5 -6 6 -1 11 2 17 5 13 3 -3 4 -12 1 -19z m373 -23 c0 -5 -5 -3 -10 5
-5 8 -10 20 -10 25 0 6 5 3 10 -5 5 -8 10 -19 10 -25z m-360 1 c0 -3 -4 -8
-10 -11 -5 -3 -10 -1 -10 4 0 6 5 11 10 11 6 0 10 -2 10 -4z m263 -56 c3 -11
1 -18 -4 -14 -5 3 -9 12 -9 20 0 20 7 17 13 -6z"/>
<path d="M455 3271 c-3 -2 -5 -28 -5 -58 0 -49 2 -53 24 -53 40 0 56 11 56 36
0 19 -7 26 -30 31 -37 7 -34 26 6 34 16 4 25 8 19 9 -24 4 -66 5 -70 1z m55
-76 c0 -8 -9 -15 -20 -15 -11 0 -20 7 -20 15 0 8 9 15 20 15 11 0 20 -7 20
-15z"/>
<path d="M1050 3270 c0 -5 7 -10 16 -10 8 0 12 5 9 10 -3 6 -10 10 -16 10 -5
0 -9 -4 -9 -10z"/>
<path d="M563 3238 c-28 -36 -17 -78 20 -78 29 0 47 18 47 47 0 34 -48 56 -67
31z m41 -24 c7 -19 -12 -47 -25 -38 -5 3 -9 16 -9 30 0 27 24 33 34 8z"/>
<path d="M791 3236 c-7 -8 -11 -27 -9 -43 2 -23 8 -29 36 -31 19 -2 32 1 32 8
0 6 -8 10 -17 8 -10 -1 -19 2 -21 7 -1 6 6 11 18 13 24 4 27 37 4 46 -23 9
-30 8 -43 -8z m39 -16 c0 -5 -7 -10 -16 -10 -8 0 -12 5 -9 10 3 6 10 10 16 10
5 0 9 -4 9 -10z"/>
<path d="M967 3243 c-4 -3 -7 -24 -7 -45 0 -38 1 -39 33 -36 28 3 32 7 35 37
4 35 -9 51 -39 51 -9 0 -19 -3 -22 -7z m38 -23 c-3 -5 -10 -10 -16 -10 -5 0
-9 5 -9 10 0 6 7 10 16 10 8 0 12 -4 9 -10z m3 -31 c-2 -6 -8 -10 -13 -10 -5
0 -11 4 -13 10 -2 6 4 11 13 11 9 0 15 -5 13 -11z"/>
<path d="M1440 3230 c-17 -17 -21 -18 -26 -5 -11 28 -24 15 -24 -25 0 -22 5
-40 10 -40 6 0 10 7 10 15 0 8 4 15 9 15 5 0 11 -7 15 -15 7 -20 62 -20 70 1
11 29 6 53 -13 64 -26 13 -28 13 -51 -10z m45 -10 c3 -6 4 -19 0 -30 -7 -23
-35 -16 -35 9 0 29 22 42 35 21z"/>
<path d="M654 3225 c3 -8 1 -26 -4 -40 -12 -31 2 -33 23 -2 l16 22 0 -22 c1
-25 21 -32 21 -8 0 20 17 19 29 -2 5 -10 13 -14 17 -10 5 4 3 16 -3 26 -9 14
-9 21 0 30 17 17 0 26 -19 10 -13 -11 -18 -11 -21 -1 -7 18 -23 15 -23 -5 -1
-17 -1 -17 -14 0 -16 21 -30 22 -22 2z"/>
<path d="M1050 3200 c0 -22 5 -40 10 -40 6 0 10 18 10 40 0 22 -4 40 -10 40
-5 0 -10 -18 -10 -40z"/>
<path d="M1110 3216 c0 -14 -4 -28 -10 -31 -5 -3 -10 -17 -10 -31 0 -13 5 -24
10 -24 6 0 10 7 10 15 0 10 10 15 30 15 20 0 30 -5 30 -15 0 -8 5 -15 11 -15
8 0 9 15 4 48 -9 60 -10 62 -46 62 -24 0 -29 -4 -29 -24z m36 -33 c-14 -14
-23 4 -13 27 l10 25 5 -23 c2 -13 1 -26 -2 -29z"/>
<path d="M1200 3200 c0 -44 25 -58 33 -17 l4 22 8 -22 c4 -13 14 -23 22 -23
11 0 11 4 3 20 -6 12 -8 30 -5 40 8 25 -3 26 -21 3 -13 -17 -13 -17 -14 0 0 9
-7 17 -15 17 -11 0 -15 -11 -15 -40z"/>
<path d="M1303 3203 c-6 -21 -10 -39 -8 -41 9 -9 24 11 30 38 8 37 25 30 25
-11 0 -16 5 -29 10 -29 6 0 10 18 10 40 0 37 -2 40 -28 40 -23 0 -29 -6 -39
-37z"/>
<path d="M1522 3218 c2 -15 11 -24 26 -26 12 -2 22 -10 22 -18 0 -8 5 -14 10
-14 6 0 10 18 10 40 0 22 -4 40 -10 40 -5 0 -10 -6 -10 -14 0 -24 -21 -30 -27
-7 -7 28 -25 27 -21 -1z"/>
<path d="M1620 3200 c0 -45 10 -51 33 -17 l16 22 0 -22 c1 -41 21 -24 21 17 0
45 -11 51 -34 18 l-16 -22 0 22 c0 12 -4 22 -10 22 -5 0 -10 -18 -10 -40z"/>
<path d="M868 3155 c-6 -30 7 -33 22 -6 13 26 13 31 -4 31 -7 0 -16 -11 -18
-25z"/>
<path d="M1720 3171 c0 -5 -3 -18 -7 -28 -6 -16 -5 -16 10 -4 19 15 23 41 7
41 -5 0 -10 -4 -10 -9z"/>
<path d="M462 3048 c-7 -7 -12 -31 -12 -55 0 -54 26 -73 61 -45 31 26 20 72
-17 72 -14 0 -23 4 -19 10 3 6 15 10 26 10 10 0 19 5 19 10 0 14 -43 13 -58
-2z m41 -61 c7 -19 -8 -41 -22 -33 -16 10 -14 46 3 46 8 0 16 -6 19 -13z"/>
<path d="M1410 3050 c0 -5 5 -10 10 -10 6 0 10 5 10 10 0 6 -4 10 -10 10 -5 0
-10 -4 -10 -10z"/>
<path d="M983 3023 c-20 -8 -15 -22 6 -16 10 3 22 0 25 -6 4 -7 -1 -11 -12
-11 -11 0 -26 -7 -33 -16 -11 -14 -11 -18 4 -29 9 -7 28 -10 42 -7 20 3 25 10
25 36 0 45 -22 64 -57 49z m32 -63 c-3 -5 -10 -10 -16 -10 -5 0 -9 5 -9 10 0
6 7 10 16 10 8 0 12 -4 9 -10z"/>
<path d="M1072 3018 c-15 -15 -16 -60 -1 -75 11 -11 49 -6 49 7 0 4 -8 7 -17
6 -13 -1 -18 6 -18 24 0 18 5 25 18 24 21 -2 22 12 1 20 -20 8 -18 8 -32 -6z"/>
<path d="M1243 3023 c-21 -8 -15 -22 7 -16 27 7 25 -10 -2 -22 -37 -16 -29
-40 15 -43 35 -3 37 -2 37 27 0 16 -7 37 -16 45 -16 17 -21 18 -41 9z m27 -63
c0 -5 -4 -10 -10 -10 -5 0 -10 5 -10 10 0 6 5 10 10 10 6 0 10 -4 10 -10z"/>
<path d="M1636 3017 c-12 -9 -17 -23 -14 -42 3 -26 8 -30 36 -33 19 -2 32 1
32 8 0 7 -7 9 -16 6 -9 -3 -21 -3 -27 1 -7 5 0 10 18 13 23 4 29 10 27 25 -6
34 -28 42 -56 22z m34 -17 c0 -5 -7 -10 -16 -10 -8 0 -12 5 -9 10 3 6 10 10
16 10 5 0 9 -4 9 -10z"/>
<path d="M1738 3022 c-27 -3 -28 -6 -28 -57 0 -55 17 -84 27 -47 3 12 15 22
27 24 15 2 22 11 24 34 4 36 -12 51 -50 46z m32 -42 c0 -10 -5 -22 -10 -25
-13 -8 -24 20 -16 41 8 20 26 9 26 -16z"/>
<path d="M1927 3019 c-24 -14 -22 -65 2 -79 21 -11 51 -4 51 12 0 5 -9 7 -19
3 -11 -3 -22 -1 -26 5 -4 6 4 10 19 10 19 0 26 5 26 20 0 25 -30 41 -53 29z
m33 -19 c0 -5 -7 -10 -16 -10 -8 0 -12 5 -9 10 3 6 10 10 16 10 5 0 9 -4 9
-10z"/>
<path d="M540 3016 c0 -3 5 -17 11 -33 6 -15 11 -41 11 -57 -1 -24 1 -27 12
-15 19 20 47 109 34 109 -5 0 -12 -9 -15 -20 -3 -11 -9 -20 -13 -20 -4 0 -10
9 -13 20 -4 17 -27 30 -27 16z"/>
<path d="M645 2990 c-4 -16 -11 -32 -16 -35 -12 -8 -12 -45 1 -45 6 0 10 7 10
15 0 10 10 15 30 15 20 0 30 -5 30 -15 0 -8 5 -15 11 -15 8 0 10 13 5 38 -3
20 -6 45 -6 55 0 12 -8 17 -29 17 -25 0 -31 -5 -36 -30z m45 -10 c0 -11 -7
-20 -15 -20 -17 0 -18 2 -9 24 9 23 24 20 24 -4z"/>
<path d="M740 2981 c0 -43 18 -58 51 -41 28 15 24 47 -6 54 -14 4 -25 11 -25
16 0 6 -4 10 -10 10 -5 0 -10 -18 -10 -39z m42 -16 c0 -5 -5 -11 -11 -13 -6
-2 -11 4 -11 13 0 9 5 15 11 13 6 -2 11 -8 11 -13z"/>
<path d="M890 3008 c0 -7 -7 -26 -15 -41 -13 -26 -13 -28 3 -25 9 2 18 12 20
23 7 36 22 41 22 7 0 -22 5 -32 15 -32 11 0 15 11 15 40 0 38 -2 40 -30 40
-17 0 -30 -5 -30 -12z"/>
<path d="M1140 2980 c0 -22 5 -40 10 -40 6 0 10 7 10 15 0 20 10 19 26 -2 16
-23 29 -11 16 13 -7 12 -7 25 -1 36 13 24 -9 24 -27 1 -13 -17 -13 -17 -14 0
0 37 -20 15 -20 -23z"/>
<path d="M1410 2980 c0 -22 5 -40 10 -40 6 0 10 18 10 40 0 22 -4 40 -10 40
-5 0 -10 -18 -10 -40z"/>
<path d="M1450 2980 c0 -40 15 -54 26 -25 4 8 12 15 20 15 8 0 14 -7 14 -15 0
-8 5 -15 10 -15 6 0 10 18 10 40 0 22 -4 40 -10 40 -5 0 -10 -7 -10 -15 0 -8
-7 -15 -15 -15 -8 0 -15 7 -15 15 0 8 -7 15 -15 15 -11 0 -15 -11 -15 -40z"/>
<path d="M1553 3006 c9 -7 17 -25 17 -40 0 -14 5 -26 10 -26 6 0 10 13 10 28
0 15 5 33 12 40 9 9 3 12 -27 12 -35 -1 -38 -2 -22 -14z"/>
<path d="M1810 2980 c0 -22 5 -40 10 -40 6 0 10 7 10 15 0 8 9 15 20 15 11 0
20 -7 20 -15 0 -8 5 -15 10 -15 6 0 10 18 10 40 0 22 -4 40 -10 40 -5 0 -10
-7 -10 -15 0 -8 -9 -15 -20 -15 -11 0 -20 7 -20 15 0 8 -4 15 -10 15 -5 0 -10
-18 -10 -40z"/>
<path d="M2003 3006 c9 -7 17 -25 17 -40 0 -14 5 -26 10 -26 6 0 10 16 10 36
0 21 4 33 10 29 6 -3 10 -1 10 4 0 6 -17 11 -37 11 -34 -1 -36 -2 -20 -14z"/>
<path d="M1317 2938 c-4 -12 -4 -24 -1 -27 6 -7 24 20 24 37 0 21 -17 13 -23
-10z"/>
<path d="M965 2831 c-6 -11 9 -23 19 -14 9 9 7 23 -3 23 -6 0 -12 -4 -16 -9z"/>
<path d="M1023 2826 c2 -6 14 -11 27 -11 13 0 25 5 27 11 2 6 -10 11 -27 11
-17 0 -29 -5 -27 -11z"/>
<path d="M1156 2831 c-4 -5 -2 -12 3 -15 5 -4 12 -2 15 3 4 5 2 12 -3 15 -5 4
-12 2 -15 -3z"/>
<path d="M1450 2820 c0 -11 5 -20 10 -20 6 0 10 9 10 20 0 11 -4 20 -10 20 -5
0 -10 -9 -10 -20z"/>
<path d="M1760 2795 c0 -25 5 -45 10 -45 6 0 10 20 10 45 0 25 -4 45 -10 45
-5 0 -10 -20 -10 -45z"/>
<path d="M450 2774 l0 -55 38 3 c32 3 37 7 40 31 3 23 -1 28 -27 33 -37 8 -41
24 -6 24 14 0 25 5 25 10 0 6 -16 10 -35 10 l-35 0 0 -56z m56 -15 c8 -14 -18
-31 -30 -19 -9 9 0 30 14 30 5 0 12 -5 16 -11z"/>
<path d="M1255 2780 c-9 -28 -14 -54 -10 -58 4 -4 10 -1 12 6 5 14 53 17 53 2
0 -5 7 -10 15 -10 18 0 19 -5 -4 55 -26 68 -45 69 -66 5z m44 -12 c1 -5 -6 -8
-15 -8 -11 0 -14 5 -10 16 3 9 6 21 7 27 0 12 17 -20 18 -35z"/>
<path d="M551 2779 c-16 -45 12 -79 53 -63 22 9 20 23 -3 17 -10 -3 -22 0 -25
6 -5 7 3 11 19 11 22 0 26 4 23 23 -4 32 -55 37 -67 6z m44 1 c3 -5 -1 -10
-10 -10 -9 0 -13 5 -10 10 3 6 8 10 10 10 2 0 7 -4 10 -10z"/>
<path d="M640 2791 c0 -6 6 -8 14 -5 8 3 17 1 21 -5 3 -6 -1 -11 -9 -11 -22 0
-20 -18 2 -23 14 -3 13 -6 -7 -14 -29 -12 -12 -28 19 -18 16 5 20 14 17 43 -2
32 -6 37 -30 40 -15 2 -27 -1 -27 -7z"/>
<path d="M710 2796 c0 -2 7 -20 15 -41 9 -20 13 -46 9 -57 -4 -15 -2 -19 7
-16 11 4 45 81 48 111 2 19 -18 4 -27 -20 l-10 -28 -11 28 c-6 15 -15 27 -21
27 -5 0 -10 -2 -10 -4z"/>
<path d="M800 2783 c0 -29 12 -63 21 -63 5 0 9 12 9 26 0 15 8 33 18 40 15 12
14 13 -15 14 -25 0 -33 -4 -33 -17z"/>
<path d="M880 2772 c0 -15 -5 -33 -12 -40 -6 -6 -9 -14 -6 -17 9 -10 38 25 38
46 0 10 5 19 10 19 6 0 10 -13 10 -30 0 -16 5 -30 10 -30 6 0 10 18 10 40 0
38 -2 40 -30 40 -26 0 -30 -4 -30 -28z"/>
<path d="M970 2760 c0 -22 5 -40 10 -40 6 0 10 18 10 40 0 22 -4 40 -10 40 -5
0 -10 -18 -10 -40z"/>
<path d="M1010 2760 c0 -45 13 -51 41 -17 l18 22 1 -22 c0 -13 5 -23 10 -23 6
0 10 18 10 40 0 46 -5 48 -37 18 l-23 -21 0 21 c0 12 -4 22 -10 22 -5 0 -10
-18 -10 -40z"/>
<path d="M1157 2793 c-7 -13 5 -73 14 -73 5 0 9 18 9 40 0 36 -12 52 -23 33z"/>
<path d="M1350 2746 c0 -30 5 -58 10 -61 6 -3 10 3 10 15 0 16 4 20 19 15 24
-7 43 17 39 52 -3 24 -8 28 -40 31 l-38 3 0 -55z m58 8 c-4 -24 -24 -29 -32
-8 -8 20 13 49 27 35 5 -5 7 -17 5 -27z"/>
<path d="M1497 2793 c-13 -12 -7 -60 8 -73 16 -13 45 -7 45 9 0 6 -6 8 -14 5
-8 -3 -17 -1 -20 4 -3 5 4 13 17 17 l22 7 -25 7 c-17 5 -21 9 -12 15 6 4 17 4
22 1 6 -3 10 -1 10 4 0 12 -43 15 -53 4z"/>
<path d="M1570 2759 c0 -39 1 -40 33 -37 29 3 32 6 34 41 2 36 1 37 -32 37
-34 0 -35 -1 -35 -41z m50 21 c0 -5 -7 -10 -15 -10 -8 0 -15 5 -15 10 0 6 7
10 15 10 8 0 15 -4 15 -10z m0 -41 c0 -5 -7 -9 -15 -9 -15 0 -20 12 -9 23 8 8
24 -1 24 -14z"/>
<path d="M1662 2773 c6 -16 14 -44 18 -63 l7 -35 16 36 c22 49 31 89 20 89 -5
0 -14 -12 -20 -27 l-10 -28 -8 28 c-4 15 -13 27 -21 27 -11 0 -11 -5 -2 -27z"/>
<path d="M1760 2725 c0 -8 5 -15 10 -15 6 0 10 7 10 15 0 8 -4 15 -10 15 -5 0
-10 -7 -10 -15z"/>
<path d="M2650 1115 c0 -3 5 -16 11 -27 10 -18 9 -20 -7 -14 -17 7 -17 6 1
-14 10 -11 20 -20 22 -20 9 0 -5 74 -16 78 -6 2 -11 1 -11 -3z"/>
<path d="M3946 3061 c-4 -7 -5 -15 -2 -18 9 -9 19 4 14 18 -4 11 -6 11 -12 0z"/>
<path d="M3900 3053 c-9 -2 -21 -17 -27 -34 -9 -23 -9 -29 0 -26 6 2 14 14 17
27 5 21 7 21 19 6 12 -14 12 -19 -1 -34 -21 -24 -42 -66 -30 -58 6 4 15 -1 20
-11 9 -14 14 -15 36 -5 14 6 26 18 26 27 0 22 -18 18 -25 -5 -3 -11 -11 -20
-17 -20 -6 0 -6 6 2 15 9 10 9 15 1 15 -6 0 -11 -5 -11 -11 0 -5 -4 -8 -10 -4
-13 8 10 56 24 48 6 -3 8 -2 3 2 -4 5 -1 15 7 24 12 14 11 18 -3 32 -9 8 -23
14 -31 12z"/>
<path d="M3955 2999 c-4 -11 -5 -23 -2 -25 8 -8 47 20 47 33 0 21 -38 15 -45
-8z"/>
<path d="M3780 2990 c-9 -6 -10 -10 -3 -10 6 0 15 5 18 10 8 12 4 12 -15 0z"/>
<path d="M3554 2932 c-6 -4 -14 -19 -18 -34 -5 -22 -3 -26 9 -22 8 4 18 17 21
31 7 27 3 35 -12 25z"/>
<path d="M3469 2891 c-31 -27 -34 -35 -37 -93 -2 -35 -12 -83 -23 -107 -29
-66 -24 -78 16 -35 19 21 35 45 35 53 0 14 -2 14 -11 1 -9 -12 -10 -12 -5 3 3
10 6 24 6 30 0 8 4 7 9 -2 7 -11 9 -8 10 10 2 73 14 117 30 122 21 5 36 47 17
47 -7 0 -28 -13 -47 -29z"/>
<path d="M3141 2854 c0 -11 3 -14 6 -6 3 7 2 16 -1 19 -3 4 -6 -2 -5 -13z"/>
<path d="M3140 2797 c-20 -62 -18 -86 6 -66 8 6 14 8 14 3 0 -4 7 1 15 12 15
19 15 19 8 -1 -3 -11 -11 -23 -17 -27 -6 -4 -1 -6 11 -5 12 0 20 4 18 7 -2 3
3 16 12 30 13 24 14 24 10 3 -3 -13 -1 -23 4 -23 5 0 9 9 9 21 0 11 5 17 10
14 6 -3 10 4 11 17 1 20 2 19 9 -6 5 -16 7 -33 4 -38 -3 -4 -2 -13 1 -19 12
-18 31 23 33 66 0 22 -1 34 -4 28 -8 -17 -24 -16 -24 1 0 21 -25 26 -49 10
-21 -15 -26 -11 -22 21 0 6 -8 11 -19 11 -15 0 -24 -14 -40 -59z"/>
<path d="M3311 2834 c0 -11 3 -14 6 -6 3 7 2 16 -1 19 -3 4 -6 -2 -5 -13z"/>
<path d="M3400 2832 c0 -7 -5 -11 -11 -9 -6 1 -15 -8 -20 -21 -6 -15 -5 -21 1
-17 6 3 10 13 10 21 0 8 5 12 10 9 6 -4 8 -10 5 -15 -3 -5 -1 -11 4 -14 14 -9
25 34 12 47 -8 8 -11 8 -11 -1z"/>
<path d="M3125 2819 c-4 -6 -5 -12 -2 -15 2 -3 7 2 10 11 7 17 1 20 -8 4z"/>
<path d="M3313 2789 c4 -13 7 -27 7 -31 0 -5 4 -8 9 -8 11 0 1 49 -12 57 -6 4
-8 -2 -4 -18z"/>
<path d="M3342 2790 c0 -14 2 -19 5 -12 2 6 2 18 0 25 -3 6 -5 1 -5 -13z"/>
<path d="M3620 2669 c0 -5 -4 -7 -10 -4 -5 3 -7 0 -4 -9 3 -8 -2 -16 -13 -19
-10 -3 -3 -4 15 -2 36 4 57 15 29 15 -10 0 -14 5 -11 15 4 8 3 15 0 15 -3 0
-6 -5 -6 -11z"/>
<path d="M3555 2639 c-4 -6 -5 -12 -2 -15 2 -3 7 2 10 11 7 17 1 20 -8 4z"/>
<path d="M2864 2547 c-12 -6 -29 -32 -39 -59 -9 -26 -26 -59 -36 -72 -15 -19
-17 -30 -9 -50 8 -21 16 -26 43 -26 34 0 77 23 77 42 0 6 -7 5 -16 -3 -33 -27
-74 -10 -74 30 0 25 35 29 44 6 5 -14 9 -14 37 1 22 11 28 18 20 24 -7 4 -13
11 -12 16 0 5 -8 9 -18 8 -12 0 -17 5 -14 13 8 21 58 15 86 -11 30 -28 39 -17
30 38 -4 28 -12 37 -36 45 -35 13 -54 12 -83 -2z"/>
<path d="M3452 2533 c-10 -4 -10 -8 0 -21 10 -14 10 -15 -2 -4 -25 21 -55 13
-93 -26 -24 -25 -37 -48 -38 -67 -2 -29 -2 -29 -8 4 l-6 35 -30 -32 c-16 -18
-35 -32 -42 -32 -18 0 -25 -18 -15 -37 9 -14 10 -14 17 6 5 18 9 20 21 10 10
-8 14 -8 14 0 0 18 35 13 54 -8 23 -25 67 -36 77 -19 5 7 3 16 -4 20 -9 6 -9
8 0 8 8 0 9 9 3 29 -6 23 -5 31 7 35 21 9 23 8 17 -9 -4 -8 -1 -15 5 -15 10 0
12 5 15 40 2 22 72 13 87 -11 5 -8 9 -10 9 -6 0 4 10 -1 22 -13 12 -11 20 -21
17 -23 -31 -25 -77 -52 -89 -54 -8 -1 -25 -5 -37 -9 -15 -4 -23 -2 -23 5 0 7
-4 9 -10 6 -37 -23 25 -33 91 -15 43 12 118 87 95 96 -8 3 -20 19 -26 35 -20
46 -91 86 -128 72z"/>
<path d="M3451 2420 c-13 -40 -13 -40 -1 -40 16 0 32 39 22 56 -8 14 -11 11
-21 -16z"/>
<path d="M2687 2420 c-27 -8 -56 -35 -57 -52 0 -19 35 -5 68 27 38 36 37 39
-11 25z"/>
<path d="M3680 2385 c0 -21 40 -39 79 -36 22 2 31 -1 27 -8 -4 -7 1 -11 13
-11 12 0 21 5 21 11 0 5 5 7 11 4 16 -11 6 28 -11 42 -23 19 -140 17 -140 -2z"/>
<path d="M2607 2344 c-11 -11 3 -24 18 -18 8 4 12 10 9 15 -6 11 -18 12 -27 3z"/>
<path d="M2896 2337 c-24 -17 -24 -74 -1 -91 10 -7 15 -18 12 -23 -4 -6 2 -22
13 -36 26 -32 25 -60 -2 -108 -22 -39 -20 -58 4 -43 17 11 98 13 98 3 0 -5 9
-13 20 -19 16 -9 18 -8 14 5 -4 8 -9 15 -13 15 -16 0 -71 64 -71 82 0 25 49
128 61 128 16 0 89 34 89 42 0 4 -7 5 -16 1 -10 -4 -17 1 -21 15 -2 11 -15 23
-28 26 -13 3 -31 9 -42 12 -10 4 -1 -6 20 -20 44 -31 47 -41 11 -32 -35 9 -63
-16 -56 -49 3 -20 1 -24 -12 -19 -9 3 -16 15 -16 25 0 10 -5 19 -11 19 -5 0
-8 -3 -5 -8 2 -4 -2 -15 -9 -25 -11 -15 -13 -14 -18 15 -3 18 -9 42 -13 52 -4
12 -4 17 2 13 5 -3 10 3 10 14 0 10 -1 19 -1 19 -1 0 -9 -6 -19 -13z"/>
<path d="M3823 2324 c-33 -14 -44 -34 -20 -34 9 0 8 -3 -2 -9 -10 -7 -8 -12
10 -25 13 -9 18 -16 11 -16 -6 0 -12 -4 -12 -10 0 -5 9 -10 20 -10 11 0 20 -7
20 -15 0 -18 5 -19 33 -2 12 8 40 14 62 15 l40 1 -50 -12 c-71 -18 -83 -27
-60 -44 18 -13 18 -13 -1 -13 -10 -1 -30 -7 -44 -15 -24 -14 -23 -14 28 -15
29 0 52 -5 52 -10 0 -6 10 -15 23 -20 12 -5 16 -9 9 -9 -7 -1 -10 -6 -6 -13 4
-7 3 -8 -4 -4 -7 4 -12 2 -12 -3 0 -6 6 -11 14 -11 7 0 19 -7 26 -15 7 -8 22
-15 34 -15 15 0 17 -3 8 -9 -11 -7 -11 -11 2 -22 9 -8 22 -19 29 -25 25 -22
112 -64 132 -64 19 1 19 1 2 14 -14 11 -15 15 -4 19 16 6 20 57 5 57 -6 0 -5
7 2 15 9 10 9 15 1 15 -6 0 -11 7 -11 15 0 8 -8 15 -17 15 -14 0 -15 2 -4 9 8
5 9 11 3 15 -5 3 -7 17 -4 31 3 18 0 25 -12 25 -9 0 -16 5 -16 10 0 6 5 10 11
10 5 0 7 5 3 11 -3 6 -19 9 -35 7 -16 -3 -29 -1 -29 4 0 4 12 8 28 9 l27 0
-24 10 c-14 5 -31 7 -38 4 -8 -2 -11 0 -8 5 3 6 -1 10 -9 10 -9 0 -13 6 -10
14 3 9 -10 22 -37 37 -23 13 -41 28 -40 34 3 13 -35 26 -57 19 -13 -4 -14 -3
-4 4 11 7 10 10 -3 16 -21 8 -23 7 -62 -10z m190 -171 c-7 -2 -19 -2 -25 0 -7
3 -2 5 12 5 14 0 19 -2 13 -5z m87 -19 c0 -8 -5 -12 -10 -9 -6 4 -8 11 -5 16
9 14 15 11 15 -7z"/>
<path d="M2508 2283 c7 -3 16 -2 19 1 4 3 -2 6 -13 5 -11 0 -14 -3 -6 -6z"/>
<path d="M3558 2243 c7 -3 16 -2 19 1 4 3 -2 6 -13 5 -11 0 -14 -3 -6 -6z"/>
<path d="M2620 2220 c-9 -6 -10 -10 -3 -10 6 0 15 5 18 10 8 12 4 12 -15 0z"/>
<path d="M3485 2220 c-3 -5 0 -10 8 -10 10 0 13 -7 10 -20 -4 -15 2 -22 23
-30 21 -8 30 -8 32 0 3 7 12 6 29 -5 20 -14 30 -14 60 -4 31 10 34 13 18 21
-11 7 -20 7 -24 1 -9 -14 -41 -24 -41 -13 0 6 -7 10 -15 10 -8 0 -15 3 -15 8
0 11 50 31 65 26 7 -3 16 0 21 7 4 8 3 10 -5 5 -6 -4 -18 -3 -25 4 -18 14 -66
3 -60 -15 7 -17 -10 -27 -32 -18 -16 6 -15 7 2 21 12 9 13 12 4 9 -8 -2 -23 0
-32 4 -10 6 -19 5 -23 -1z"/>
<path d="M3476 2125 c4 -8 16 -15 28 -15 15 0 17 -3 8 -9 -16 -10 21 -37 59
-43 13 -2 23 -9 22 -15 -1 -6 9 -14 22 -17 14 -4 25 -13 25 -21 0 -7 10 -17
23 -21 12 -4 24 -10 27 -13 3 -4 20 -12 39 -17 32 -9 33 -10 17 -26 -16 -16
-16 -18 4 -38 12 -12 15 -20 8 -20 -7 -1 -2 -7 12 -15 20 -11 21 -14 7 -15
-11 0 -15 -5 -11 -11 3 -6 0 -16 -7 -21 -10 -6 -3 -7 21 -4 19 3 29 3 22 0 -6
-3 -9 -10 -6 -15 3 -6 -5 -7 -23 -3 -26 7 -27 6 -13 -11 14 -17 13 -18 -2 -12
-42 17 -53 19 -39 9 10 -7 5 -11 -20 -16 -19 -4 -47 -7 -62 -7 -15 0 -25 -4
-22 -9 3 -6 -1 -7 -10 -4 -8 4 -31 3 -51 0 -34 -7 -35 -8 -33 -51 2 -27 7 -41
14 -39 6 3 23 0 38 -5 21 -8 29 -7 39 7 17 24 60 39 128 46 30 4 60 7 67 8 7
1 10 5 7 10 -3 4 4 8 15 8 11 0 22 4 25 9 3 5 37 12 76 16 76 8 82 15 54 63
l-16 27 21 -25 c11 -14 21 -28 21 -32 0 -12 79 -9 103 4 32 17 47 41 36 55 -7
8 -4 13 8 16 12 3 9 5 -8 6 -15 0 -29 7 -32 14 -4 10 4 12 27 10 25 -3 27 -2
11 6 -11 5 -40 10 -65 10 l-45 0 35 -19 c19 -11 28 -19 19 -20 -9 0 -19 3 -23
8 -4 4 -12 8 -17 8 -5 1 -12 3 -16 4 -11 4 -33 7 -66 9 -16 0 -26 5 -23 10 8
13 -15 29 -49 34 l-30 4 33 2 c25 1 32 5 32 22 0 16 -4 20 -17 14 -13 -4 -15
-3 -7 5 6 6 9 22 7 35 -4 17 -14 25 -37 29 -36 7 -96 -2 -96 -14 0 -4 -9 -10
-20 -13 -15 -4 -20 0 -20 14 0 10 -4 19 -10 19 -5 0 -10 -4 -10 -9 0 -5 -7
-12 -16 -15 -14 -6 -15 -4 -4 9 11 14 10 17 -8 22 -12 3 -22 10 -22 15 0 6
-15 8 -34 6 -25 -3 -33 0 -32 12 1 10 -10 16 -29 18 -16 2 -35 8 -42 14 -7 5
-21 7 -33 3 -11 -4 -20 -2 -20 4 0 6 -4 11 -10 11 -5 0 -7 -7 -4 -15z m621
-341 c-3 -3 -12 -4 -19 -1 -8 3 -5 6 6 6 11 1 17 -2 13 -5z m-180 -10 c-3 -3
-12 -4 -19 -1 -8 3 -5 6 6 6 11 1 17 -2 13 -5z"/>
<path d="M3834 2091 c5 -8 56 -3 56 5 0 2 -14 4 -31 4 -16 0 -28 -4 -25 -9z"/>
<path d="M3895 2083 c-30 -7 -43 -23 -18 -23 11 0 26 7 33 15 7 8 11 14 9 14
-2 -1 -13 -3 -24 -6z"/>
<path d="M2550 2050 l-35 -7 35 -2 c19 0 42 4 50 9 13 9 13 10 0 9 -8 -1 -31
-5 -50 -9z"/>
<path d="M2564 2015 c-17 -13 -17 -14 -2 -15 9 0 20 5 23 11 11 17 0 20 -21 4z"/>
<path d="M3598 1993 c7 -3 16 -2 19 1 4 3 -2 6 -13 5 -11 0 -14 -3 -6 -6z"/>
<path d="M2539 1963 c-12 -16 -12 -17 1 -7 8 6 22 14 30 17 13 5 12 6 -1 6 -9
1 -23 -7 -30 -16z"/>
<path d="M3304 1934 c24 -17 37 -18 30 -1 -2 7 -15 13 -27 14 -21 2 -21 1 -3
-13z"/>
<path d="M2535 1930 c-3 -5 1 -10 9 -10 8 0 18 5 21 10 3 6 -1 10 -9 10 -8 0
-18 -4 -21 -10z"/>
<path d="M2450 1895 c-11 -13 -10 -14 4 -9 9 3 16 10 16 15 0 13 -6 11 -20 -6z"/>
<path d="M2526 1895 c-6 -16 3 -19 28 -9 22 8 20 24 -3 24 -10 0 -21 -7 -25
-15z"/>
<path d="M2543 1833 c-4 -10 -13 -24 -20 -31 -21 -21 -15 -32 17 -33 17 -1 42
-1 57 -2 15 -1 29 5 31 12 3 8 0 11 -7 7 -6 -4 -9 -2 -6 6 12 33 -59 74 -72
41z"/>
<path d="M2744 1683 c-4 -10 -6 -22 -5 -28 1 -5 -6 -2 -16 8 -15 13 -22 14
-31 5 -20 -20 -15 -41 8 -35 11 3 18 1 15 -3 -17 -28 122 -43 145 -15 6 8 9
23 5 35 -6 20 -12 22 -77 22 -28 0 -35 3 -31 14 8 20 -3 17 -13 -3z"/>
<path d="M4070 1692 c0 -4 9 -8 20 -9 11 -1 20 2 20 8 0 5 -9 9 -20 9 -11 0
-20 -4 -20 -8z"/>
<path d="M3988 1673 c-14 -3 -15 -7 -5 -17 8 -10 19 -11 35 -5 14 5 21 5 18 0
-4 -5 -3 -11 1 -14 5 -2 2 -2 -5 0 -7 1 -22 -2 -33 -8 -14 -7 -24 -7 -32 0 -7
5 -31 12 -54 14 -37 5 -41 3 -38 -14 3 -16 1 -17 -15 -9 -24 13 -33 13 -25 -1
4 -6 1 -9 -6 -8 -8 1 -23 -2 -33 -6 -12 -5 -21 -5 -23 1 -2 6 -27 9 -55 8 -28
-1 -73 1 -99 5 -31 5 -46 4 -42 -2 4 -6 -4 -7 -21 -3 -19 5 -26 3 -26 -8 0 -9
6 -13 13 -10 10 3 12 -5 9 -33 -5 -38 -4 -38 16 -20 14 13 22 15 27 7 4 -6 14
-10 23 -9 10 1 22 0 27 -1 6 -2 23 -3 39 -4 37 -1 45 -21 9 -22 -16 0 -37 -3
-49 -7 -13 -5 -27 -1 -42 13 -27 25 -30 25 -31 -2 -3 -61 -7 -94 -14 -104 -4
-7 0 -11 10 -10 15 1 18 -8 18 -61 -1 -57 1 -61 18 -51 17 9 17 7 7 -12 -8
-15 -8 -20 -1 -16 6 4 11 3 11 -2 0 -6 -7 -13 -16 -16 -9 -3 -14 -12 -11 -19
2 -6 0 -20 -5 -31 -7 -12 -7 -16 0 -12 13 8 42 -3 42 -16 0 -5 -4 -7 -9 -3 -5
3 -12 1 -15 -4 -8 -12 16 -18 84 -20 l54 -1 -33 24 c-18 13 -28 27 -22 30 9 6
62 12 187 20 59 4 84 18 84 46 0 22 13 27 51 22 17 -2 26 -9 22 -15 -3 -5 -2
-7 4 -4 5 3 27 2 48 -4 28 -8 40 -8 45 1 4 7 23 16 41 20 l34 8 -42 1 c-23 1
-43 6 -45 13 -3 9 -38 13 -117 14 -89 1 -116 5 -129 18 -15 15 -15 16 3 17 60
3 96 9 114 19 11 6 31 8 45 4 13 -3 27 -1 31 6 4 6 16 8 27 4 14 -4 18 -2 14
5 -5 7 3 9 24 5 27 -6 30 -4 30 20 0 28 14 35 24 11 3 -8 16 -15 28 -14 15 0
18 3 8 6 -26 10 -30 27 -9 39 20 10 20 11 -5 27 -14 9 -32 14 -41 11 -9 -4
-26 -2 -38 5 -12 6 -42 18 -67 26 -40 13 -41 14 -10 10 34 -5 34 -4 9 8 -14 6
-33 18 -42 26 -9 7 -24 10 -33 7 -18 -7 -60 19 -46 28 6 3 18 -1 26 -10 10 -9
16 -11 16 -4 0 7 7 9 16 6 14 -5 15 -4 4 9 -18 21 -3 19 32 -6 24 -18 32 -19
38 -8 5 7 5 18 0 25 -6 6 -7 13 -4 16 3 4 -3 16 -13 27 -17 21 -30 23 -65 14z
m77 -63 c3 -6 -1 -7 -9 -4 -18 7 -21 14 -7 14 6 0 13 -4 16 -10z m62 -136 c-3
-3 -12 -4 -19 -1 -8 3 -5 6 6 6 11 1 17 -2 13 -5z m-506 -137 c-6 -8 -9 -16
-6 -19 3 -2 -2 -5 -10 -5 -20 0 -19 14 3 26 23 14 26 13 13 -2z m346 -43 c-3
-3 -12 -4 -19 -1 -8 3 -5 6 6 6 11 1 17 -2 13 -5z m-82 -44 c3 -6 -1 -7 -9 -4
-18 7 -21 14 -7 14 6 0 13 -4 16 -10z m-218 -76 c-3 -3 -12 -4 -19 -1 -8 3 -5
6 6 6 11 1 17 -2 13 -5z"/>
<path d="M2876 1645 c4 -8 11 -15 16 -15 6 0 5 6 -2 15 -7 8 -14 15 -16 15 -2
0 -1 -7 2 -15z"/>
<path d="M4528 1653 c6 -2 18 -2 25 0 6 3 1 5 -13 5 -14 0 -19 -2 -12 -5z"/>
<path d="M3070 1630 c-12 -7 -10 -11 10 -18 24 -9 39 -1 40 21 0 10 -32 9 -50
-3z"/>
<path d="M2876 1584 c-9 -22 3 -32 14 -14 12 19 12 30 1 30 -5 0 -12 -7 -15
-16z"/>
<path d="M4020 1586 c0 -2 8 -10 18 -17 15 -13 16 -12 3 4 -13 16 -21 21 -21
13z"/>
<path d="M4120 1520 c28 -22 36 -24 45 -11 7 12 -1 16 -40 25 l-30 7 25 -21z"/>
<path d="M4612 1508 c-9 -3 -33 -7 -53 -7 -38 -1 -127 -35 -112 -43 4 -3 2 -3
-4 -2 -33 8 -60 -27 -30 -39 7 -3 5 -6 -5 -6 -10 -1 -18 -5 -18 -11 0 -5 -8
-10 -17 -10 -14 0 -15 -2 -5 -9 11 -7 10 -9 -3 -15 -9 -3 -13 -10 -10 -16 4
-6 -6 -10 -22 -11 -24 0 -25 -1 -8 -8 11 -5 34 -6 50 -4 17 2 25 0 20 -4 -14
-10 -11 -50 6 -91 15 -36 21 -37 99 -16 24 6 24 6 5 -9 -11 -8 -36 -18 -55
-22 l-35 -8 32 -11 c17 -6 35 -15 39 -19 5 -4 0 -5 -11 -1 -18 7 -19 6 -5 -12
13 -17 13 -18 0 -8 -25 18 -49 24 -55 13 -4 -5 10 -16 30 -25 35 -14 50 -33
43 -53 -1 -6 -22 7 -46 29 -49 45 -56 48 -47 20 5 -16 3 -19 -12 -13 -17 7
-17 6 0 -22 10 -17 33 -42 50 -57 17 -15 28 -30 25 -33 -3 -3 -24 13 -47 36
-23 23 -45 39 -49 35 -4 -4 1 -12 11 -17 9 -6 17 -17 17 -25 0 -8 -4 -12 -10
-9 -5 3 -10 2 -10 -4 0 -5 5 -11 12 -13 6 -2 12 -12 14 -22 2 -14 0 -16 -9 -7
-6 6 -20 11 -32 10 -11 0 -14 -3 -7 -6 6 -2 12 -11 12 -18 0 -8 14 -24 31 -36
l31 -22 -11 22 c-15 28 -5 47 16 29 9 -7 18 -12 20 -10 10 7 23 0 17 -10 -6
-10 -4 -10 8 0 9 7 19 9 22 4 3 -5 58 -12 123 -16 149 -8 283 -21 306 -31 10
-4 17 -3 17 4 0 6 7 11 15 11 9 0 18 12 22 30 3 17 10 33 14 36 5 3 9 14 9 25
0 25 9 36 93 121 40 41 76 68 88 68 12 0 34 14 49 30 15 17 37 30 49 30 14 0
21 6 21 19 0 10 7 24 16 31 9 8 14 25 12 44 l-3 31 -84 -4 c-52 -2 -81 0 -78
6 12 19 -65 33 -113 21 -25 -6 -55 -10 -67 -9 -13 0 -23 -3 -23 -8 0 -12 -75
-23 -105 -15 -30 7 -40 34 -36 95 1 28 -3 50 -11 56 -15 13 -170 21 -196 11z"/>
<path d="M2940 1441 c0 -6 -7 -11 -16 -11 -8 0 -12 -4 -9 -10 3 -5 0 -10 -7
-10 -25 -1 27 -31 80 -46 47 -14 70 -34 40 -34 -9 0 -8 -4 2 -10 11 -7 18 -5
27 6 9 12 16 13 32 4 19 -10 21 -8 21 15 0 18 -7 28 -26 35 -14 6 -23 14 -20
19 3 4 -3 16 -12 25 -23 20 -112 34 -112 17z"/>
<path d="M2998 1343 c7 -3 16 -2 19 1 4 3 -2 6 -13 5 -11 0 -14 -3 -6 -6z"/>
<path d="M3131 1333 c10 -11 10 -14 2 -9 -17 10 -16 -2 1 -20 17 -17 66 -36
66 -26 0 9 -65 72 -75 72 -4 0 -1 -8 6 -17z"/>
<path d="M2735 1301 c-3 -5 -1 -12 5 -16 5 -3 10 1 10 9 0 18 -6 21 -15 7z"/>
<path d="M3077 1296 c-8 -19 3 -28 18 -16 9 8 14 6 18 -5 4 -8 13 -12 22 -9
12 5 13 9 4 20 -7 8 -14 12 -17 10 -2 -3 -13 -1 -22 4 -13 7 -20 6 -23 -4z"/>
<path d="M3330 1298 c0 -7 5 -20 10 -28 8 -12 10 -9 10 13 0 15 -4 27 -10 27
-5 0 -10 -6 -10 -12z"/>
<path d="M2992 1279 c2 -15 12 -26 28 -30 14 -4 18 -8 10 -9 -8 -1 -1 -6 15
-10 79 -22 81 -22 65 -11 -20 15 4 15 31 0 12 -6 38 -7 67 -3 l47 7 -35 11
-35 10 40 7 c37 6 35 6 -20 7 -33 1 -67 -2 -75 -8 -9 -6 -17 -5 -22 3 -5 8
-12 6 -23 -8 -13 -16 -16 -17 -11 -3 6 19 -18 48 -39 48 -7 0 -21 3 -30 6 -13
5 -16 2 -13 -17z"/>
<path d="M3280 1291 c0 -6 4 -13 10 -16 6 -3 7 1 4 9 -7 18 -14 21 -14 7z"/>
<path d="M3310 1291 c0 -6 4 -13 10 -16 6 -3 7 1 4 9 -7 18 -14 21 -14 7z"/>
<path d="M4160 1266 c0 -2 14 -6 30 -8 17 -3 30 -1 30 4 0 4 -13 8 -30 8 -16
0 -30 -2 -30 -4z"/>
<path d="M3296 1245 c-3 -9 0 -15 9 -15 16 0 20 16 6 24 -5 3 -11 -1 -15 -9z"/>
<path d="M3380 1249 c0 -6 -8 -9 -18 -7 -12 4 -18 -1 -19 -14 -2 -15 3 -19 18
-15 11 3 16 1 13 -5 -4 -5 -22 -8 -41 -6 -29 4 -37 0 -48 -23 -8 -14 -11 -30
-7 -34 4 -5 1 -5 -5 -1 -7 4 -13 3 -13 -2 0 -13 44 -24 64 -16 9 4 21 15 26
25 7 12 18 16 36 13 20 -4 27 0 31 16 3 11 9 17 14 14 5 -3 6 2 3 10 -3 8 -11
13 -19 10 -7 -3 -15 2 -19 12 -5 13 -2 15 14 11 17 -4 19 -3 9 9 -14 17 -39
19 -39 3z"/>
<path d="M2920 1235 c0 -8 5 -15 11 -15 5 0 7 5 3 12 -5 7 -1 9 13 6 12 -3 27
-2 34 3 9 6 1 9 -23 9 -27 0 -38 -4 -38 -15z"/>
<path d="M4368 1243 c7 -3 16 -2 19 1 4 3 -2 6 -13 5 -11 0 -14 -3 -6 -6z"/>
<path d="M2744 1206 c-4 -11 -2 -21 7 -27 18 -11 24 5 10 28 -9 17 -10 17 -17
-1z"/>
<path d="M2868 1213 c7 -3 16 -2 19 1 4 3 -2 6 -13 5 -11 0 -14 -3 -6 -6z"/>
<path d="M3015 1200 c3 -5 0 -7 -8 -4 -19 7 -28 -8 -16 -26 6 -10 9 -11 9 -2
0 7 15 12 40 12 42 0 52 -12 23 -29 -10 -6 -13 -11 -6 -11 6 0 15 5 18 10 3 6
21 10 38 10 l32 -1 -32 -14 c-18 -8 -33 -18 -33 -22 0 -11 48 -10 75 1 11 4
30 12 43 17 12 5 22 13 22 19 0 5 -10 11 -22 11 -21 1 -21 2 -3 6 11 3 24 9
30 14 14 14 -32 11 -63 -4 -32 -16 -55 -14 -104 7 -43 19 -51 20 -43 6z"/>
<path d="M2885 1190 c4 -6 11 -8 16 -5 14 9 11 15 -7 15 -8 0 -12 -5 -9 -10z"/>
<path d="M3247 1180 c-3 -12 0 -20 8 -20 7 0 15 9 18 20 3 12 0 20 -8 20 -7 0
-15 -9 -18 -20z"/>
<path d="M3780 1150 c0 -12 33 -30 54 -30 13 0 12 4 -4 20 -21 21 -50 27 -50
10z"/>
<path d="M3173 1113 c-19 -13 -37 -19 -64 -22 -4 -1 -9 -10 -12 -20 -7 -28 25
-33 54 -9 13 11 17 17 9 13 -8 -4 -6 0 4 9 10 8 23 17 29 19 5 1 8 8 6 14 -3
7 -11 6 -26 -4z"/>
<path d="M3220 1105 c-9 -10 -9 -15 -1 -15 6 0 11 4 11 9 0 5 10 12 23 14 21
4 21 4 1 6 -12 0 -27 -6 -34 -14z"/>
<path d="M3657 1105 c-11 -7 -24 -12 -30 -11 -7 2 -8 1 -4 -2 4 -2 3 -10 -4
-18 -9 -11 -9 -14 0 -14 7 0 9 -6 6 -12 -4 -7 0 -5 8 5 15 18 32 24 22 7 -3
-5 0 -8 7 -5 7 3 31 -4 53 -15 21 -11 33 -20 26 -20 -7 0 -20 4 -30 10 -13 6
-24 5 -37 -5 -18 -14 -18 -14 0 -15 12 0 16 -5 13 -14 -3 -8 -1 -17 6 -20 7
-2 5 -5 -4 -5 -17 -1 -25 -61 -8 -61 5 0 9 -4 9 -10 0 -5 -7 -10 -15 -10 -8 0
-15 -4 -15 -9 0 -4 11 -7 25 -6 14 2 23 -2 22 -8 -1 -7 8 -12 20 -11 12 0 20
-3 17 -7 -2 -5 5 -13 16 -19 11 -6 20 -15 20 -21 0 -6 -6 -7 -12 -2 -16 9 -58
12 -58 4 0 -11 20 -36 20 -26 0 6 5 2 11 -7 5 -10 14 -18 19 -18 6 0 19 -9 30
-20 19 -19 19 -19 -8 -16 -15 2 -21 1 -13 -1 9 -3 10 -7 3 -12 -5 -3 12 -7 39
-8 27 0 46 3 43 8 -3 5 2 6 10 3 9 -3 16 -10 16 -15 0 -5 5 -9 11 -9 8 0 9 4
0 13 -6 8 -7 18 -3 22 4 5 1 5 -5 1 -7 -4 -13 -2 -13 4 0 6 -4 8 -10 5 -5 -3
-7 0 -4 8 3 9 -8 28 -25 46 -34 35 -37 44 -18 59 14 12 47 -2 34 -14 -7 -8 22
-33 38 -33 6 0 1 7 -10 15 -20 16 -20 16 2 9 19 -5 22 -3 16 12 -5 14 -3 16 7
6 10 -9 16 -8 27 3 17 17 49 18 59 3 4 -8 -1 -9 -17 -4 -16 5 -21 4 -14 -3 6
-5 21 -13 35 -17 19 -5 21 -4 10 4 -12 8 -12 11 -1 11 10 0 11 3 2 13 -6 8 -8
17 -4 20 3 4 12 -1 18 -10 13 -17 100 -28 89 -12 -3 5 -9 7 -14 4 -4 -3 -13 2
-19 9 -10 12 -8 13 10 9 16 -4 20 -2 17 8 -3 8 -12 14 -20 13 -8 -1 -15 5 -15
12 0 9 7 10 26 2 l26 -9 -25 23 c-13 13 -27 22 -30 22 -11 -3 -32 38 -26 51 4
12 -6 15 -52 16 -47 1 -52 2 -26 8 17 5 47 7 65 6 19 -1 42 1 51 6 10 6 19 5
23 -1 3 -6 21 -17 38 -26 29 -13 30 -13 13 1 -11 8 -23 15 -28 15 -4 0 -8 4
-8 8 0 19 45 4 67 -23 22 -24 28 -27 56 -18 l32 9 -40 13 c-43 14 -85 47 -82
63 2 13 -105 50 -115 40 -11 -10 3 -27 36 -44 l30 -15 -25 -13 c-21 -12 -23
-12 -11 2 10 13 7 17 -20 28 -18 7 -42 20 -53 29 -19 15 -19 15 -5 -3 14 -17
13 -18 -5 -13 -11 4 -27 2 -35 -4 -13 -9 -13 -10 0 -8 31 3 40 -2 40 -22 0
-15 -4 -19 -16 -15 -9 3 -21 6 -27 6 -8 0 -7 4 2 9 11 7 9 10 -8 16 -13 4 -18
11 -14 18 5 9 2 8 -8 0 -12 -10 -18 -10 -27 -1 -6 6 -14 9 -18 5 -3 -3 9 -15
27 -26 19 -12 28 -21 21 -21 -7 0 -10 -5 -6 -12 5 -8 0 -9 -17 -3 -13 4 -42 9
-64 12 -41 5 -74 23 -42 23 9 0 17 5 17 10 0 6 -5 10 -11 10 -5 0 -7 5 -3 12
5 8 2 9 -9 5 -9 -3 -16 -3 -14 1 1 4 -2 7 -8 7 -5 0 -9 -4 -7 -9 2 -5 -5 -5
-15 -1 -10 4 -28 7 -41 6 -13 0 -20 3 -17 9 8 13 4 12 -18 -5z m207 -94 c3 -4
-6 -6 -19 -3 -14 2 -25 6 -25 8 0 8 39 4 44 -5z m-93 -18 c13 -16 12 -17 -3
-4 -10 7 -18 15 -18 17 0 8 8 3 21 -13z m84 -13 c4 -6 11 -8 16 -5 5 4 9 1 9
-4 0 -14 -2 -14 -36 4 -18 9 -23 15 -12 15 9 0 20 -5 23 -10z m101 -21 c19
-11 34 -21 34 -22 0 -1 -11 -2 -24 -2 -13 0 -22 3 -20 7 2 4 -6 14 -18 22 -33
23 -11 19 28 -5z m25 -46 c13 -16 12 -17 -3 -4 -17 13 -22 21 -14 21 2 0 10
-8 17 -17z m-266 -3 c3 -5 1 -10 -4 -10 -6 0 -11 5 -11 10 0 6 2 10 4 10 3 0
8 -4 11 -10z m61 -21 c4 -8 1 -8 -14 0 -12 6 -24 16 -28 22 -4 8 -1 8 14 0 12
-6 24 -16 28 -22z m34 17 c0 -11 -19 -15 -25 -6 -3 5 1 10 9 10 9 0 16 -2 16
-4z m30 -166 c0 -5 -9 -6 -20 -3 -11 3 -20 9 -20 13 0 5 9 6 20 3 11 -3 20 -9
20 -13z"/>
<path d="M3805 1101 c2 -21 41 -26 48 -8 4 11 -3 16 -23 19 -21 3 -27 0 -25
-11z"/>
<path d="M4160 1103 c8 -3 22 -11 30 -17 13 -10 13 -9 1 7 -7 9 -21 17 -30 16
-13 0 -14 -1 -1 -6z"/>
<path d="M3015 1070 c3 -5 10 -10 16 -10 5 0 9 5 9 10 0 6 -7 10 -16 10 -8 0
-12 -4 -9 -10z"/>
<path d="M4169 1049 c13 -11 26 -17 29 -14 7 6 -29 34 -43 34 -5 0 1 -9 14
-20z"/>
<path d="M3096 1024 c-5 -14 -4 -15 9 -4 17 14 19 20 6 20 -5 0 -12 -7 -15
-16z"/>
<path d="M4080 1002 c0 -4 10 -9 22 -9 18 -2 20 0 8 7 -18 12 -30 13 -30 2z"/>
<path d="M2468 965 c-3 -13 -1 -22 3 -19 5 3 9 12 9 20 0 9 5 12 12 8 7 -4 8
-3 4 4 -12 19 -23 14 -28 -13z"/>
<path d="M4084 956 c11 -9 24 -16 30 -16 12 0 7 5 -24 19 -24 11 -24 11 -6 -3z"/>
<path d="M4156 946 c7 -19 38 -22 32 -3 -3 6 -12 13 -21 15 -12 2 -15 -1 -11
-12z"/>
<path d="M3388 903 c7 -3 16 -2 19 1 4 3 -2 6 -13 5 -11 0 -14 -3 -6 -6z"/>
<path d="M4160 882 c0 -5 7 -17 16 -28 14 -17 15 -17 10 -1 -3 10 -6 23 -6 28
0 5 -4 9 -10 9 -5 0 -10 -4 -10 -8z"/>
<path d="M3815 830 c3 -5 8 -10 11 -10 2 0 4 5 4 10 0 6 -5 10 -11 10 -5 0 -7
-4 -4 -10z"/>
<path d="M3520 809 c0 -5 5 -7 10 -4 6 3 10 8 10 11 0 2 -4 4 -10 4 -5 0 -10
-5 -10 -11z"/>
<path d="M3304 791 c3 -4 -3 -16 -14 -26 -11 -10 -20 -22 -20 -27 0 -5 11 3
25 18 21 23 25 44 9 44 -3 0 -3 -4 0 -9z"/>
<path d="M3895 791 c-3 -5 -2 -12 3 -15 5 -3 9 1 9 9 0 17 -3 19 -12 6z"/>
<path d="M3867 754 c3 -7 9 -11 15 -8 5 3 12 -3 15 -15 3 -12 9 -21 14 -21 4
0 18 -10 29 -22 18 -20 22 -21 31 -8 9 13 10 12 5 -2 -3 -11 0 -18 8 -18 8 0
17 -6 19 -12 4 -10 6 -10 6 1 1 18 -87 98 -121 110 -22 8 -26 7 -21 -5z"/>
<path d="M1656 675 c-23 -10 -25 -13 -11 -18 23 -10 67 -8 83 2 25 15 -39 30
-72 16z"/>
<path d="M3835 680 c-17 -7 -17 -9 -2 -9 9 -1 34 -18 55 -38 53 -54 115 -93
95 -60 -4 6 5 4 20 -6 15 -10 33 -15 39 -11 6 4 8 3 4 -4 -3 -6 -2 -13 4 -17
16 -10 12 21 -5 35 -8 7 -15 18 -15 26 0 12 -57 59 -72 59 -3 0 -10 3 -14 8
-13 13 -24 8 -17 -9 3 -9 -6 -5 -22 10 -30 28 -38 30 -70 16z m180 -70 c3 -6
-1 -7 -9 -4 -18 7 -21 14 -7 14 6 0 13 -4 16 -10z"/>
<path d="M4396 651 c-4 -5 -2 -12 4 -16 6 -4 8 -11 4 -16 -3 -6 2 -19 12 -30
17 -18 16 -19 -11 -19 -32 0 -26 -12 8 -16 12 -1 25 -3 30 -3 10 -1 9 -31 -2
-31 -5 0 -8 -8 -7 -17 2 -13 12 -18 35 -18 17 0 29 -4 27 -10 -1 -5 -15 -9
-30 -7 -36 4 -33 -13 5 -29 26 -10 39 -10 73 2 22 8 39 18 38 23 -2 5 2 13 10
17 10 6 8 9 -7 9 -14 0 -16 3 -7 8 8 6 -6 15 -41 27 -44 15 -53 22 -49 37 2
10 8 18 13 18 5 0 9 11 9 25 0 20 -7 26 -41 35 -22 6 -46 13 -54 16 -7 3 -16
1 -19 -5z m81 -63 c-3 -8 -6 -5 -6 6 -1 11 2 17 5 13 3 -3 4 -12 1 -19z m-10
-40 c-3 -8 -6 -5 -6 6 -1 11 2 17 5 13 3 -3 4 -12 1 -19z m73 -48 c13 -8 13
-10 -2 -10 -9 0 -20 5 -23 10 -8 13 5 13 25 0z m15 -40 c3 -5 -1 -10 -10 -10
-9 0 -13 5 -10 10 3 6 8 10 10 10 2 0 7 -4 10 -10z"/>
<path d="M550 630 c0 -10 119 -34 127 -26 3 3 4 8 1 11 -8 8 -128 22 -128 15z"/>
<path d="M1075 620 c3 -5 15 -10 26 -10 11 0 17 5 14 10 -3 6 -15 10 -26 10
-11 0 -17 -4 -14 -10z"/>
<path d="M1000 610 c0 -5 14 -10 30 -10 17 0 30 5 30 10 0 6 -13 10 -30 10
-16 0 -30 -4 -30 -10z"/>
<path d="M3860 605 c0 -4 60 -35 69 -35 8 0 -32 26 -51 33 -10 4 -18 5 -18 2z"/>
<path d="M1008 583 c6 -2 18 -2 25 0 6 3 1 5 -13 5 -14 0 -19 -2 -12 -5z"/>
<path d="M3830 570 c0 -5 17 -10 38 -10 27 0 33 3 22 10 -20 13 -60 13 -60 0z"/>
<path d="M3651 544 c0 -11 3 -14 6 -6 3 7 2 16 -1 19 -3 4 -6 -2 -5 -13z"/>
<path d="M3701 543 c0 -10 4 -27 9 -38 8 -19 9 -19 9 3 1 13 5 20 11 17 6 -3
10 -2 10 2 0 5 -9 14 -20 21 -17 10 -20 10 -19 -5z"/>
<path d="M3750 543 c0 -5 10 -18 23 -29 l22 -19 -20 25 c-11 14 -21 27 -22 29
-2 2 -3 0 -3 -6z"/>
<path d="M3890 530 l25 -20 -29 10 c-16 6 -31 9 -33 6 -3 -2 5 -7 18 -11 13
-4 17 -10 10 -14 -15 -9 12 -47 38 -54 15 -4 19 0 16 14 -5 24 23 25 41 2 12
-17 13 -16 14 4 0 12 -9 27 -20 33 -11 6 -20 17 -20 24 0 17 -22 26 -58 26
l-27 0 25 -20z m45 -8 c-3 -3 -11 0 -18 7 -9 10 -8 11 6 5 10 -3 15 -9 12 -12z"/>
<path d="M4980 521 c-27 -15 -214 -34 -218 -22 -6 18 -73 13 -88 -6 -7 -10
-14 -21 -14 -24 0 -4 44 -10 98 -13 106 -8 197 -22 225 -37 15 -8 17 -4 17 29
0 21 5 43 11 49 6 6 8 16 5 22 -8 13 -16 13 -36 2z"/>
<path d="M5659 505 c-13 -13 -30 -25 -36 -25 -9 0 -13 -16 -13 -44 0 -37 3
-45 23 -50 12 -3 33 -3 45 1 20 5 22 11 22 74 0 38 -4 69 -9 69 -5 0 -19 -11
-32 -25z"/>
<path d="M5090 480 c0 -16 2 -30 4 -30 14 0 66 24 66 30 0 11 -30 21 -41 14
-5 -3 -9 0 -9 5 0 6 -4 11 -10 11 -5 0 -10 -13 -10 -30z"/>
<path d="M4080 493 c0 -13 29 -38 35 -31 3 3 -4 13 -15 23 -11 10 -20 13 -20
8z"/>
<path d="M5240 490 c0 -5 -10 -10 -22 -11 -19 -1 -17 -3 9 -11 38 -13 65 -5
57 17 -7 16 -44 21 -44 5z"/>
<path d="M3760 471 c0 -6 5 -13 10 -16 6 -3 10 1 10 9 0 9 -4 16 -10 16 -5 0
-10 -4 -10 -9z"/>
<path d="M0 232 l0 -232 313 1 c191 1 289 5 252 9 -33 4 -86 8 -117 9 -55 1
-108 16 -108 31 0 4 87 8 194 8 107 0 203 5 213 10 10 5 40 13 68 17 27 4 58
13 69 21 19 13 19 14 -12 20 -32 7 -45 24 -17 24 9 0 15 9 15 21 0 16 3 19 13
11 14 -12 325 -16 407 -5 l55 8 -75 7 c-160 14 -262 26 -267 32 -4 3 3 6 15 6
12 0 22 4 22 9 0 14 -141 24 -183 13 -22 -6 -51 -7 -74 -1 -21 5 -54 9 -73 10
l-35 2 33 4 c17 2 32 10 32 17 0 7 9 22 20 34 11 12 20 23 20 26 0 3 -30 5
-67 5 -79 0 -300 17 -393 31 -36 5 -104 10 -152 10 -56 0 -88 4 -90 12 -2 6
-15 12 -29 13 -13 1 -24 7 -24 13 0 6 -6 17 -12 24 -10 10 -13 -34 -13 -220z
m863 -9 c-13 -2 -33 -2 -45 0 -13 2 -3 4 22 4 25 0 35 -2 23 -4z"/>
<path d="M783 452 c-13 -2 -23 -7 -23 -13 0 -13 50 -23 61 -12 14 14 -11 30
-38 25z"/>
<path d="M3710 450 c0 -5 5 -10 11 -10 5 0 7 5 4 10 -3 6 -8 10 -11 10 -2 0
-4 -4 -4 -10z"/>
<path d="M3950 456 c0 -2 8 -10 18 -17 15 -13 16 -12 3 4 -13 16 -21 21 -21
13z"/>
<path d="M4057 435 c10 -13 22 -25 27 -25 5 0 -1 11 -14 25 -30 32 -36 32 -13
0z"/>
<path d="M4110 442 c0 -12 19 -26 26 -19 2 2 -2 10 -11 17 -9 8 -15 8 -15 2z"/>
<path d="M4198 422 c13 -17 21 -32 17 -32 -3 0 -1 -9 5 -20 15 -28 2 -46 -16
-23 -7 10 -14 26 -14 36 0 9 -3 16 -7 16 -22 -4 -33 2 -27 14 5 8 3 8 -9 -2
-16 -12 -16 -15 0 -42 10 -16 21 -29 26 -29 4 0 6 -4 2 -10 -5 -9 -50 28 -50
42 0 3 -4 10 -9 15 -5 5 -6 2 -1 -6 6 -10 2 -12 -14 -6 -22 7 -22 6 -6 -25 9
-18 12 -29 7 -26 -6 3 -18 3 -28 -1 -15 -6 -15 -9 8 -27 13 -12 42 -43 63 -71
26 -33 31 -43 15 -30 -13 11 -33 30 -43 43 -17 21 -44 22 -32 1 3 -5 0 -6 -7
-3 -7 3 -32 31 -55 61 l-43 57 0 -33 c0 -25 4 -32 14 -28 15 6 31 -18 27 -40
-1 -7 5 -13 14 -13 8 0 15 -4 15 -9 0 -5 10 -31 22 -58 28 -60 32 -73 18 -50
-14 21 -32 13 -23 -11 6 -15 5 -15 -10 -3 -10 7 -3 -9 15 -37 18 -27 38 -48
43 -45 6 3 5 0 -2 -7 -9 -10 -15 -10 -28 4 -18 17 -40 22 -30 6 3 -6 -1 -7 -9
-4 -9 3 -13 10 -10 16 6 10 -54 73 -62 65 -3 -3 4 -21 16 -42 15 -26 18 -41
10 -50 -8 -9 6 -12 62 -14 68 -1 74 0 84 22 9 19 7 28 -8 47 -10 13 -17 29
-14 36 3 7 1 16 -4 19 -6 4 -10 11 -10 17 0 6 9 -1 21 -16 23 -30 41 -34 37
-8 -2 10 2 16 11 14 9 -2 12 4 8 18 -6 22 18 29 26 8 4 -9 6 -7 6 3 1 9 -8 28
-19 42 -21 27 -26 47 -11 47 5 0 14 -13 21 -30 7 -16 16 -30 21 -30 5 0 3 13
-6 30 -19 36 -19 41 0 34 9 -4 15 0 15 9 0 22 -20 32 -31 16 -7 -11 -9 -11 -9
2 0 23 10 30 31 18 21 -11 26 0 8 18 -6 6 -8 17 -3 24 5 9 11 4 18 -18 l11
-30 23 22 23 21 -37 20 c-21 10 -39 25 -42 33 -3 9 0 11 8 6 26 -16 -1 14 -33
37 l-32 23 23 -33z m92 -92 c0 -5 -4 -10 -10 -10 -5 0 -10 5 -10 10 0 6 5 10
10 10 6 0 10 -4 10 -10z m-131 -74 c1 -5 -5 -3 -13 4 -8 6 -12 19 -9 27 6 14
8 14 14 -3 4 -10 8 -23 8 -28z m-64 -46 c3 -5 1 -10 -4 -10 -6 0 -11 5 -11 10
0 6 2 10 4 10 3 0 8 -4 11 -10z m23 -158 c6 -18 -15 -14 -22 4 -4 10 -1 14 6
12 6 -2 14 -10 16 -16z"/>
<path d="M3680 431 c0 -6 5 -13 10 -16 6 -3 10 1 10 9 0 9 -4 16 -10 16 -5 0
-10 -4 -10 -9z"/>
<path d="M3901 423 c12 -15 12 -16 -5 -9 -19 7 -19 6 -1 -14 10 -11 23 -20 29
-20 6 0 6 4 -1 11 -6 6 -9 17 -7 24 3 7 -2 15 -12 19 -15 6 -15 4 -3 -11z"/>
<path d="M483 423 c9 -2 23 -2 30 0 6 3 -1 5 -18 5 -16 0 -22 -2 -12 -5z"/>
<path d="M4530 420 c-9 -6 -10 -10 -3 -10 6 0 15 5 18 10 8 12 4 12 -15 0z"/>
<path d="M3753 388 c6 -17 -3 -23 -26 -19 -5 1 -5 -4 -1 -11 4 -6 9 -30 10
-52 4 -50 10 -66 25 -66 8 0 8 4 1 13 -5 6 -9 23 -8 37 1 14 -2 31 -7 38 -7 8
-5 12 5 12 16 0 17 45 2 58 -4 4 -4 -1 -1 -10z"/>
<path d="M4488 393 c6 -2 18 -2 25 0 6 3 1 5 -13 5 -14 0 -19 -2 -12 -5z"/>
<path d="M4555 390 c3 -5 13 -10 22 -10 13 0 13 -3 3 -15 -22 -27 14 -18 40
10 l23 25 -47 0 c-29 0 -45 -4 -41 -10z"/>
<path d="M4010 375 c7 -9 15 -13 17 -11 7 7 -7 26 -19 26 -6 0 -6 -6 2 -15z"/>
<path d="M4394 371 c0 -11 5 -17 14 -14 14 6 12 25 -4 30 -5 2 -10 -5 -10 -16z"/>
<path d="M4360 370 c0 -5 5 -10 10 -10 6 0 10 5 10 10 0 6 -4 10 -10 10 -5 0
-10 -4 -10 -10z"/>
<path d="M5610 351 c0 -5 7 -14 15 -21 12 -10 15 -10 15 3 0 9 8 18 18 20 9 3
2 5 -15 6 -18 0 -33 -3 -33 -8z"/>
<path d="M796 341 c-3 -4 1 -16 8 -26 17 -24 111 -37 206 -28 93 8 63 21 -52
22 -71 1 -78 3 -78 21 0 17 -7 20 -39 20 -22 0 -42 -4 -45 -9z"/>
<path d="M4426 342 c-3 -5 -20 -7 -37 -4 -29 4 -31 3 -18 -11 10 -11 16 -12
22 -3 5 6 7 2 4 -12 -6 -24 16 -42 52 -42 23 0 28 -15 9 -23 -10 -4 -10 -6 0
-6 7 -1 10 -5 7 -11 -10 -16 -23 -12 -30 9 -6 19 -55 36 -55 20 0 -5 -5 -9
-11 -9 -5 0 -8 4 -5 9 4 5 -2 8 -11 7 -19 -3 -25 -30 -8 -32 35 -2 85 -18 85
-26 0 -5 -4 -6 -10 -3 -5 3 -10 0 -10 -7 0 -9 -3 -9 -8 -2 -4 6 -21 14 -38 17
-27 5 -30 3 -29 -16 1 -11 7 -23 15 -25 7 -3 10 0 6 7 -17 27 20 7 58 -32 45
-47 89 -99 66 -80 -7 7 -18 9 -24 5 -6 -4 -31 2 -56 15 -25 12 -38 23 -30 23
8 1 4 6 -9 11 -23 9 -40 -1 -41 -23 0 -12 35 -27 73 -31 40 -5 85 -30 94 -53
3 -8 14 -14 25 -14 12 0 16 4 12 11 -5 9 1 10 22 4 53 -14 174 -17 189 -5 9 7
15 8 20 0 10 -16 21 -12 21 10 0 16 -11 24 -46 35 -25 7 -41 14 -36 14 19 2
-18 31 -40 31 -13 0 -28 9 -34 20 -9 17 -7 20 17 26 16 4 36 11 46 16 16 8 16
11 2 24 -8 8 -28 16 -45 16 -36 1 -61 24 -36 34 9 3 22 4 30 1 9 -4 14 2 14
17 0 15 -7 22 -22 24 -11 0 -22 6 -24 12 -2 5 -12 10 -22 10 -10 0 -20 7 -24
15 -3 9 -19 15 -41 15 -19 0 -35 4 -35 8 0 10 -48 14 -54 4z m54 -46 c10 -13
10 -16 -1 -15 -25 1 -44 14 -47 32 -3 15 0 17 16 8 10 -5 24 -17 32 -25z"/>
<path d="M3940 336 c0 -2 7 -9 15 -16 13 -11 14 -10 9 4 -5 14 -24 23 -24 12z"/>
<path d="M3711 284 c0 -11 3 -14 6 -6 3 7 2 16 -1 19 -3 4 -6 -2 -5 -13z"/>
<path d="M3927 283 c3 -10 17 -28 31 -40 14 -13 25 -35 26 -50 1 -14 7 -28 14
-29 7 -1 8 0 2 3 -5 2 -10 11 -10 19 0 9 4 13 9 10 4 -3 -1 13 -12 35 -12 25
-25 38 -33 35 -8 -3 -13 -2 -13 2 3 18 -2 32 -11 32 -5 0 -7 -8 -3 -17z"/>
<path d="M3862 220 c12 -16 23 -30 25 -30 10 0 -4 36 -17 47 -27 22 -31 14 -8
-17z"/>
<path d="M3910 212 c6 -13 14 -21 18 -18 3 4 -2 14 -12 24 -18 16 -18 16 -6
-6z"/>
<path d="M1458 213 c12 -2 32 -2 45 0 12 2 2 4 -23 4 -25 0 -35 -2 -22 -4z"/>
<path d="M1495 176 c34 -17 165 -22 165 -6 0 6 -15 10 -34 10 -18 0 -62 2 -97
5 -62 5 -63 5 -34 -9z"/>
<path d="M3810 175 c7 -9 15 -13 17 -11 7 7 -7 26 -19 26 -6 0 -6 -6 2 -15z"/>
<path d="M5678 133 c-2 -73 -12 -103 -33 -103 -7 0 -18 -7 -25 -15 -11 -13 -6
-15 34 -15 l46 0 0 90 c0 53 -4 90 -10 90 -5 0 -11 -21 -12 -47z"/>
<path d="M3832 151 c-10 -6 -10 -10 3 -21 13 -11 14 -10 9 6 -7 18 -6 18 16
-1 l23 -20 -12 23 c-13 24 -19 26 -39 13z"/>
<path d="M4055 150 c-3 -5 -1 -10 4 -10 6 0 11 5 11 10 0 6 -2 10 -4 10 -3 0
-8 -4 -11 -10z"/>
<path d="M1213 143 c9 -2 23 -2 30 0 6 3 -1 5 -18 5 -16 0 -22 -2 -12 -5z"/>
<path d="M3733 95 c2 -22 9 -51 17 -65 12 -23 12 -24 -3 -11 -15 12 -17 11
-17 -3 0 -25 36 -19 59 10 12 15 21 32 21 38 0 6 -5 3 -11 -7 -14 -23 -27 -13
-50 37 l-19 41 3 -40z"/>
<path d="M922 109 c17 -9 115 -5 126 5 3 3 -28 6 -69 6 -54 -1 -69 -3 -57 -11z"/>
<path d="M1200 105 c0 -16 23 -18 75 -6 l30 7 -40 7 c-57 10 -65 9 -65 -8z"/>
<path d="M1342 103 c17 -3 25 -9 22 -17 -7 -18 77 -41 113 -31 15 4 22 10 16
12 -7 3 -13 13 -13 24 0 17 -7 19 -82 18 -46 -1 -71 -4 -56 -6z"/>
<path d="M1555 100 c-4 -6 5 -10 19 -10 14 0 26 5 26 10 0 6 -9 10 -19 10 -11
0 -23 -4 -26 -10z"/>
<path d="M3925 90 c3 -5 8 -26 11 -46 l4 -37 -22 19 c-23 19 -23 19 -6 -1 9
-12 27 -21 39 -22 12 -1 19 1 15 4 -3 3 -1 14 4 23 7 13 4 25 -11 44 -19 24
-47 38 -34 16z m39 -55 c-4 -8 -10 -12 -15 -9 -11 6 -2 24 11 24 5 0 7 -7 4
-15z"/>
<path d="M4297 58 c3 -13 10 -29 16 -36 7 -9 5 -11 -9 -6 -11 4 -16 3 -11 -2
16 -17 71 -13 85 7 18 26 52 25 52 -1 0 -12 7 -20 18 -20 14 0 15 2 2 10 -12
8 -12 10 5 10 l20 1 -20 12 c-11 6 -45 17 -75 23 -30 7 -63 15 -72 19 -13 5
-15 2 -11 -17z"/>
</g>
</svg>
